<svg width="512" height="256" viewBox="0 0 512 256" fill="none" xmlns="http://www.w3.org/2000/svg">
<g clip-path="url(#clip0_164_3794)">
<path d="M135.537 103.745C136.594 96.6776 137.05 89.6356 139.062 82.8492C140.013 79.6428 142.079 77.3356 144.746 75.5169C148.961 72.6428 153.561 70.4734 158.222 68.4479C167.543 64.3971 177.063 60.8558 186.713 57.6757C195.092 54.9146 203.486 52.2215 212.131 50.3377C219.643 48.7007 225.904 50.644 231.343 55.9396C237.186 61.6289 242.725 67.5993 248.145 73.6857C250.057 75.8323 251.983 77.9664 253.884 80.0863C254.779 79.7993 255.114 79.093 255.549 78.5438C261.937 70.4636 268.563 62.5796 275.253 54.7504C277.48 52.1443 279.754 49.5761 282.202 47.1569C286.795 42.6178 292.237 41.0319 298.536 42.0093C311.77 44.063 324.932 46.4965 337.961 49.6063C345.296 51.3571 352.643 53.0812 359.765 55.6192C361.449 56.2194 363.088 56.9129 364.71 57.66C368.77 59.5295 371.218 62.6401 372.329 66.9713C373.845 72.8798 374.593 78.9037 375.34 84.9338C376.155 91.5106 376.799 98.1075 377.189 104.72C377.56 111.017 378.043 117.312 378.052 123.63C378.062 131.131 376.157 137.999 372.281 144.482C367.224 152.94 361.977 161.251 355.811 168.943C352.917 172.553 349.698 175.84 345.767 178.418C342.12 180.808 338.126 181.391 333.958 181.223C321.749 180.731 309.824 178.354 297.97 175.582C290.802 173.905 283.704 171.959 276.68 169.751C276.248 169.616 275.805 169.517 275.302 169.383C274.649 170.595 274.44 171.904 274.107 173.166C272.441 179.473 268.347 183.825 262.987 187.236C254.076 192.907 244.564 197.387 234.925 201.633C226.086 205.527 217.117 209.073 207.857 211.85C204.474 212.865 201.031 213.641 197.501 213.775C192.588 213.961 188.295 212.144 184.373 209.319C178.877 205.361 174.217 200.496 169.618 195.583C161.289 186.685 153.48 177.348 146.375 167.437C143.175 162.973 140.022 158.472 137.73 153.443C135.922 149.48 135.211 145.262 134.713 140.973C133.959 134.491 134.11 127.988 134.224 121.496C134.328 115.604 134.773 109.721 135.537 103.745ZM171.513 116.195C173.42 118.596 175.284 121.033 177.243 123.391C180.87 127.758 184.563 132.058 189.028 135.635C192.72 138.593 196.78 139.541 201.375 138.467C208.001 136.919 214.263 134.327 220.476 131.664C229.811 127.662 239.06 123.455 248.206 119.035C253.064 116.687 258.027 114.515 262.427 111.321C265.356 109.194 265.79 107.146 263.996 103.991C262.704 101.72 261.227 99.574 259.628 97.5054C253.298 89.3154 246.565 81.4636 239.68 73.7408C235.111 68.6162 230.586 63.4435 225.454 58.8618C222.896 56.578 219.994 54.9514 216.392 55.3373C214.349 55.5561 212.296 55.8256 210.297 56.2863C201.821 58.2393 193.563 60.9284 185.34 63.7433C176.509 66.7662 167.724 69.9046 159.198 73.7149C156.652 74.8524 154.123 76.0617 151.817 77.6549C148.895 79.6731 148.333 81.7505 149.777 84.9657C149.926 85.2992 150.093 85.6272 150.276 85.9434C156.448 96.584 163.95 106.292 171.513 116.195ZM272.153 97.4015C280.501 100.158 289.048 102.175 297.586 104.217C307.892 106.681 318.089 109.664 328.691 110.734C331.932 111.061 334.877 110.43 337.484 108.448C340.498 106.156 342.959 103.322 345.275 100.359C350.53 93.636 355.043 86.4216 359.293 79.0371C361.281 75.5828 363.163 72.0693 364.369 68.2505C365.373 65.0737 364.512 63.1219 361.565 61.5481C358.842 60.0939 355.915 59.1648 352.98 58.2954C343.025 55.346 332.917 53.0105 322.76 50.8751C314.712 49.1831 306.673 47.4873 298.471 46.6299C293.946 46.157 290.305 47.6416 287.134 50.6555C281.045 56.4418 275.867 63.0419 270.452 69.4286C266.574 74.0023 262.845 78.6947 259.288 83.524C258.633 84.4124 258.609 85.0402 259.404 85.8895C261.499 88.1276 263.49 90.4629 265.532 92.7518C267.324 94.7613 269.017 96.9154 272.153 97.4015ZM195.649 176.227C195.739 183.455 195.796 190.685 195.942 197.912C195.977 199.639 196.078 201.387 196.503 203.083C196.982 204.995 198.195 205.865 200.134 205.595C201.488 205.407 202.842 205.157 204.162 204.804C211.25 202.913 218.046 200.177 224.813 197.405C232.688 194.18 240.43 190.645 247.977 186.695C252.521 184.317 256.977 181.796 261.253 178.963C264.227 176.993 266.343 174.369 267.142 170.835C268.06 166.772 268.538 162.635 268.788 158.49C269.152 152.464 269.467 146.432 269.432 140.39C269.398 134.585 269.491 128.787 268.632 123.007C268.006 118.792 267.418 117.965 262.713 119.48C255.912 121.67 249.4 124.598 242.888 127.514C236.585 130.337 230.302 133.205 223.976 135.978C215.975 139.485 207.902 142.822 199.708 145.861C197.843 146.553 196.484 147.787 196.209 149.887C196.072 150.929 195.951 151.981 195.935 153.03C195.824 160.671 195.741 168.311 195.649 176.227ZM148.733 159.302C150.483 161.708 152.187 164.149 153.99 166.514C162.242 177.339 170.973 187.751 180.837 197.162C182.722 198.96 184.764 200.596 186.759 202.276C187.199 202.646 187.702 203.129 188.35 202.882C189.064 202.609 188.848 201.884 188.926 201.323C189.211 199.275 189.137 197.212 189.152 195.153C189.253 180.868 189.231 166.585 188.597 152.309C188.412 148.14 187.186 144.433 184.377 141.28C182.763 139.47 181.211 137.603 179.677 135.724C170.295 124.232 161.315 112.428 152.379 100.589C150.476 98.0681 148.572 95.5447 146.453 93.1987C145.955 92.6473 145.418 91.7769 144.595 92.018C143.833 92.2414 143.892 93.2438 143.755 93.9293C143.048 97.4694 142.376 101.011 141.964 104.608C141.104 112.111 140.467 119.621 140.396 127.178C140.358 131.302 140.58 135.412 141.01 139.503C141.306 142.31 141.629 145.133 142.446 147.864C143.703 152.065 146.327 155.51 148.733 159.302ZM302.972 167.946C307.58 169.124 312.194 170.278 316.861 171.198C322.283 172.266 327.689 173.494 333.257 173.526C336.797 173.546 338.245 172.075 338.361 168.566C338.483 164.894 338.006 161.257 337.792 157.605C337.532 153.178 337.299 148.748 336.92 144.331C336.376 137.998 335.853 131.666 335.596 125.315C335.421 120.964 334.288 119.358 330.18 117.948C329.92 117.859 329.662 117.759 329.396 117.693C313.739 113.812 298.068 109.988 282.27 106.712C280.035 106.249 277.764 105.941 275.46 106.049C274.445 106.096 274.05 106.491 274.389 107.544C274.682 108.454 274.884 109.397 275.059 110.338C276.136 116.124 276.094 121.993 276.309 127.839C276.678 137.82 276.218 147.799 276.138 157.779C276.12 160.006 276.115 160.069 278.244 160.817C286.278 163.638 294.47 165.918 302.972 167.946ZM346.151 167.622C347.103 167.137 347.874 166.418 348.617 165.675C355.357 158.93 360.842 151.22 365.868 143.165C368.145 139.517 370.369 135.845 371.37 131.569C373.122 124.088 372.294 116.536 372.003 109.014C371.802 103.81 371.196 98.6228 370.791 93.4266C370.41 88.5496 369.997 83.6757 369.074 78.8652C368.919 78.0572 368.946 77.1197 368.179 76.5075C367.446 76.7105 367.179 77.3155 366.853 77.8513C363.993 82.5393 361.146 87.2348 358.28 91.9189C354.194 98.5968 349.812 105.077 345.319 111.487C343.766 113.703 342.413 116.021 342.069 118.811C341.398 124.255 341.912 129.689 342.196 135.115C342.463 140.224 343.048 145.315 343.441 150.419C343.824 155.385 344.222 160.349 344.909 165.283C345.024 166.114 344.951 167.169 346.151 167.622Z" fill="black"/>
<path d="M224.703 103.864C225.68 102.689 225.554 102.32 224.035 101.723C219.098 99.7811 214.155 97.8565 209.223 95.9021C207.565 95.245 205.936 94.5153 204.29 93.8259C203.837 93.6358 203.413 93.327 202.717 93.4183C201.924 95.241 201.114 97.1234 200.283 98.9962C200.049 99.5234 200.168 99.9589 200.47 100.407C202.235 103.026 203.95 105.679 205.767 108.262C206.764 109.679 208.214 110.101 209.902 109.635C210.607 109.441 211.312 109.244 212.027 109.09C213.584 108.754 215.159 109.571 215.602 110.917C216.054 112.29 215.499 113.516 213.865 114.196C210.064 115.776 206.223 117.257 202.397 118.776C200.442 119.553 198.49 120.339 196.523 121.086C195.886 121.328 195.215 121.516 194.543 121.629C193.069 121.878 191.761 121.111 191.241 119.764C190.752 118.499 191.109 117.661 192.55 116.685C194.725 115.212 194.997 114.12 193.541 111.91C188.03 103.538 182.501 95.1772 176.939 86.8394C175.225 84.2705 174.224 83.9423 171.256 84.7181C170.28 84.9734 169.354 85.0458 168.495 84.4397C167.57 83.7872 167.079 82.8916 167.181 81.7405C167.272 80.7089 167.906 80.1013 168.843 79.7649C174.871 77.602 180.9 75.4396 186.928 73.2753C187.781 72.9688 188.633 72.9399 189.471 73.3071C190.372 73.7023 190.953 74.3769 191.084 75.37C191.208 76.305 190.684 76.9313 189.993 77.4452C186.729 79.8742 186.709 80.0014 189.01 83.3735C190.868 86.0947 192.717 88.8217 194.57 91.5459C194.774 91.8449 194.962 92.1615 195.326 92.2944C195.881 91.9829 196.053 91.4428 196.255 90.9488C198.355 85.8271 200.447 80.702 202.527 75.5724C203.093 74.1773 202.672 73.5084 201.142 73.4258C200.418 73.3867 199.681 73.4678 198.958 73.5597C197.355 73.7636 196.251 73.1614 195.952 71.8698C195.68 70.6981 196.309 69.7035 197.748 69.1958C202.751 67.4298 207.762 65.6879 212.773 63.9449C213.379 63.7342 214.003 63.608 214.656 63.6031C215.964 63.5935 216.863 64.204 217.278 65.4119C217.703 66.6452 217.244 67.7686 216.035 68.4431C214.828 69.1167 213.559 69.7301 212.82 70.9398C212.205 71.9474 211.758 73.0607 211.27 74.1423C210.01 76.9368 208.778 79.7446 207.512 82.5363C207.13 83.378 207.293 83.8126 208.213 84.1633C218.003 87.8954 227.681 91.9077 237.349 95.9449C239.233 96.7318 241.143 96.9042 243.115 96.342C244.518 95.9419 245.776 96.2073 246.701 97.3686C247.896 98.8682 247.41 100.772 245.573 101.518C240.954 103.393 236.304 105.192 231.661 107.005C230.17 107.587 228.674 108.161 227.153 108.655C226.038 109.017 224.888 109.023 223.826 108.41C222.048 107.384 221.984 105.621 223.677 104.477C223.98 104.272 224.307 104.105 224.703 103.864Z" fill="black"/>
<path d="M330.511 98.1513C329.574 98.6828 328.716 98.6726 327.772 98.4615C322.246 97.2254 316.708 96.0422 311.173 94.8416C311.039 94.8125 310.902 94.795 310.77 94.7618C309.023 94.3258 308.152 93.3935 308.318 92.139C308.491 90.8293 309.472 90.2354 311.356 90.2995C314.264 90.3985 314.897 89.8109 315.055 86.8916C315.08 86.4364 315.182 85.9856 315.21 85.5303C315.279 84.3845 314.846 83.5651 313.654 83.3006C308.881 82.242 304.106 81.196 299.335 80.1285C298.656 79.9766 298.074 80.0806 297.533 80.5099C295.992 81.7323 294.426 82.9252 292.907 84.175C291.902 85.0026 291.992 85.6303 293.179 86.2085C293.875 86.5478 294.636 86.7507 295.342 87.0718C296.497 87.5966 296.985 88.5164 296.684 89.7568C296.438 90.7711 295.309 91.3686 294.009 91.1023C289.22 90.1209 284.441 89.0903 279.657 88.0815C278.81 87.9027 277.917 87.8544 277.174 87.3506C276.362 86.7994 275.864 86.0869 276.138 85.0285C276.382 84.0859 276.959 83.3034 277.927 83.4437C283.351 84.2294 286.955 80.9313 290.713 77.9212C297.5 72.4859 304.302 67.069 311.093 61.6384C311.62 61.2164 312.227 60.8709 312.6 60.2604C312.299 59.5598 311.611 59.4715 311.046 59.2213C309.958 58.7396 309.11 58.0742 309.386 56.7395C309.592 55.7464 310.784 55.212 312.251 55.5038C315.838 56.2169 319.411 56.9949 322.988 57.7537C323.926 57.9528 324.862 58.1654 325.794 58.393C327.146 58.7231 327.821 59.6308 327.77 60.9879C327.568 66.2894 327.284 71.588 327.114 76.8904C326.965 81.5081 326.592 86.1203 326.708 90.7451C326.752 92.4948 327.741 93.4323 329.37 93.9646C331.573 94.6844 331.979 96.2049 330.511 98.1513ZM316.038 67.107C316.024 66.6208 316.198 66.1138 315.746 65.4192C311.634 68.7655 307.559 72.0817 303.478 75.4029C303.915 76.001 304.457 75.9806 304.925 76.0858C307.641 76.6974 310.361 77.29 313.083 77.875C315.226 78.3358 315.459 78.0952 315.546 75.8173C315.654 72.99 315.842 70.1657 316.038 67.107Z" fill="black"/>
<path d="M211.68 187.255C214.163 184.93 215.145 181.927 216.069 178.895C219.587 167.352 223.112 155.811 226.602 144.259C226.911 143.236 227.508 142.621 228.44 142.213C230.619 141.259 232.786 140.279 234.962 139.32C236.667 138.57 237.314 138.794 238.117 140.488C242.229 149.171 246.334 157.857 250.427 166.548C251.499 168.823 252.126 169.161 254.608 168.682C255.54 168.502 256.512 168.405 256.985 169.466C257.421 170.445 257.346 171.426 256.573 172.274C256.094 172.799 255.471 173.087 254.846 173.367C249.838 175.612 244.827 177.852 239.814 180.086C238.477 180.682 237.469 180.452 236.937 179.459C236.377 178.418 236.689 177.204 237.712 176.437C237.785 176.382 237.859 176.324 237.94 176.284C240.595 174.953 240.99 173.521 239.443 170.391C238.08 167.635 238.151 167.687 235.356 168.981C231.705 170.672 228.006 172.26 224.303 173.835C223.593 174.137 223.209 174.541 223.006 175.266C222.476 177.158 221.847 179.023 221.336 180.92C220.911 182.501 221.538 183.06 223.137 182.653C223.666 182.519 224.204 182.396 224.745 182.334C225.573 182.238 226.328 182.403 226.67 183.281C227.021 184.181 226.853 185.047 226.114 185.653C225.522 186.138 224.819 186.516 224.117 186.834C220.077 188.664 216.025 190.469 211.972 192.269C210.244 193.037 209.082 192.904 208.529 191.914C207.884 190.761 208.381 189.6 209.95 188.534C210.516 188.15 211.056 187.726 211.68 187.255ZM225.614 166.558C225.607 166.865 225.333 167.145 225.542 167.513C225.654 167.513 225.801 167.554 225.91 167.507C228.971 166.195 232.032 164.88 235.084 163.547C235.747 163.257 235.882 162.757 235.561 162.088C234.751 160.401 233.984 158.694 233.175 157.007C232.28 155.139 231.359 153.284 230.288 151.095C228.667 156.437 227.159 161.401 225.614 166.558Z" fill="black"/>
<path d="M157.588 147.908C153.468 143.501 151.155 138.391 150.771 132.454C150.636 130.38 150.958 128.346 151.804 126.428C152.822 124.119 154.926 123.019 157.391 123.54C160.838 124.269 163.548 126.307 165.987 128.69C172.418 134.972 175.29 142.848 176.167 151.63C176.577 155.742 176.27 159.762 175.028 163.683C174.139 166.488 172.691 168.881 169.471 169.522C168.024 169.81 166.592 169.592 165.317 168.961C158.938 165.8 154.056 161.199 151.611 154.335C151.332 153.552 151.176 152.746 151.274 151.909C151.487 150.099 152.64 149.433 154.281 150.27C156.534 151.42 157.478 153.442 157.716 155.85C158.013 158.849 159.497 161.102 162.04 162.629C164.248 163.955 166.019 163.352 166.986 160.973C168.182 158.031 168.047 154.9 168.296 151.617C163.699 153.108 160.639 150.651 157.588 147.908ZM163.449 147.167C165.958 148.402 167.286 147.778 167.708 145.062C168.381 140.72 167.31 136.716 165.018 133.052C164.199 131.742 163.009 130.672 161.53 130.047C159.976 129.389 159.004 129.835 158.398 131.401C157.816 132.903 157.876 134.481 158.022 136.009C158.434 140.305 159.719 144.235 163.449 147.167Z" fill="black"/>
<path d="M313.85 160.346C306.438 159.135 302.266 154.364 299.558 147.943C297.456 142.961 296.861 137.805 298.006 132.498C298.604 129.724 299.711 127.162 301.803 125.17C305.505 121.646 309.82 121.433 314.302 123.255C320.406 125.737 323.803 130.634 325.649 136.73C327.125 141.604 327.234 146.547 325.892 151.474C324.409 156.922 320.452 160.974 313.85 160.346ZM316.602 131.511C316.099 130.219 315.434 129.02 314.462 128.022C312.747 126.263 310.402 125.892 308.783 127.138C307.755 127.929 307.35 129.117 306.951 130.292C306.369 132.01 306.409 133.806 306.264 135.582C305.881 140.267 306.17 144.911 307.305 149.468C307.849 151.654 308.747 153.731 310.587 155.215C313.049 157.2 315.832 156.521 317.074 153.617C317.36 152.949 317.6 152.24 317.724 151.527C318.885 144.846 318.532 138.24 316.602 131.511Z" fill="black"/>
<path d="M285.612 138.896C285.554 135.1 285.503 131.441 285.434 127.782C285.401 126.019 285.092 125.729 283.306 125.734C282.299 125.736 281.292 125.806 280.286 125.78C279.12 125.75 278.752 125.003 278.725 123.944C278.697 122.879 278.853 121.968 280.169 121.912C282.104 121.83 284.007 121.652 285.715 120.616C286.028 120.427 286.443 120.321 286.649 120.052C288.136 118.112 290.128 118.474 292.132 118.754C292.788 118.845 293.13 119.144 293.171 119.792C293.188 120.066 293.193 120.341 293.195 120.615C293.29 129.814 293.389 139.012 293.476 148.21C293.506 151.343 293.882 151.891 296.843 152.787C297.71 153.049 298.323 153.476 298.401 154.454C298.502 155.73 297.852 156.4 296.605 156.129C292.677 155.277 288.762 154.364 284.84 153.488C283.771 153.25 282.688 153.076 281.619 152.839C280.412 152.57 280.008 151.743 280.147 150.583C280.245 149.765 280.706 149.36 281.538 149.414C281.765 149.428 281.991 149.475 282.218 149.506C285.373 149.947 285.671 149.69 285.663 146.449C285.658 143.977 285.631 141.506 285.612 138.896Z" fill="black"/>
<path d="M360.139 138.302C358.892 139.822 357.537 141.114 356.114 142.342C352.725 145.268 348.755 144.233 347.301 140.002C345.668 135.253 345.703 130.386 346.448 125.501C347.361 119.512 349.294 113.879 352.586 108.757C354.421 105.901 356.722 103.507 359.753 101.912C363.301 100.045 366.015 101.198 367.194 105.042C367.924 107.423 368.124 109.892 368.135 112.361C368.163 118.574 366.862 124.53 364.382 130.217C363.947 131.215 364.131 131.88 364.976 132.435C365.831 132.997 366.428 132.498 367.006 131.912C367.352 131.561 367.576 131.078 368.076 130.881C369.005 133.661 366.974 139.004 364.47 140.439C363.569 140.956 362.808 140.845 362.171 140.034C361.777 139.531 361.429 138.991 361.049 138.476C360.834 138.183 360.621 137.812 360.139 138.302ZM355.008 131.011C357.017 127.52 358.335 126.861 361.613 127.75C361.672 127.589 361.754 127.429 361.789 127.259C362.612 123.276 362.435 119.247 362.257 115.229C362.176 113.406 361.877 111.596 361.3 109.842C360.929 108.713 360.494 107.595 359.195 107.378C357.92 107.164 357.056 108.06 356.312 108.934C354.925 110.563 354.036 112.477 353.514 114.537C352.103 120.103 352.002 125.741 352.756 131.407C352.967 132.989 353.178 134.586 353.777 136.082C354.4 137.64 355.558 138.007 356.948 137.09C357.437 136.767 357.847 136.32 358.273 135.908C358.964 135.239 358.922 134.546 358.289 133.862C357.639 133.161 356.915 132.776 355.999 133.395C355.773 133.548 355.572 133.739 355.361 133.915C355.087 134.144 354.836 134.498 354.42 134.245C354.043 134.016 354.064 133.598 354.168 133.256C354.379 132.558 354.662 131.882 355.008 131.011Z" fill="black"/>
</g>
<defs>
<clipPath id="clip0_164_3794">
<rect width="244" height="172.009" fill="white" transform="translate(134 42)"/>
</clipPath>
</defs>
</svg>
