<svg width="512" height="256" viewBox="0 0 512 256" fill="none" xmlns="http://www.w3.org/2000/svg">
<path d="M320.408 179.992C312.026 179.263 304.501 176.764 297.101 173.855C284.26 168.806 271.855 170.779 259.434 175.626C253.537 177.927 247.587 180.282 241.009 180.356C236.466 180.407 232.304 179.474 228.342 177.373C226.713 176.509 224.986 175.8 223.452 174.794C213.595 168.324 203.406 167.853 192.714 172.639C185.335 175.942 177.825 175.654 170.408 172.542C167.14 171.17 163.837 169.864 160.652 168.32C150.448 163.375 140.527 163.835 130.44 168.958C121.459 173.52 121.251 173.305 116.641 164.118C111.054 152.984 106.243 141.504 101.793 129.877C99.6551 124.292 100.338 123.431 106.473 122.85C125.431 121.057 144.437 120.928 163.455 121.04C171.466 121.087 171.686 120.84 172.564 112.927C172.642 112.226 172.78 111.531 172.909 110.837C175.091 99.0749 175.089 99.0521 186.853 97.4114C193.587 96.4724 200.324 95.5393 207.078 94.7639C210.895 94.3258 213.312 93.0974 213.6 88.6357C213.898 84.0127 215.178 79.4607 215.815 74.8483C216.26 71.6289 218.024 70.0932 221.119 69.842C226.77 69.3831 232.418 68.7018 238.076 68.5939C241.918 68.5206 242.933 66.4959 243.186 63.3302C243.491 59.5314 243.838 55.736 244.15 51.9377C244.625 46.1512 246.687 44.5257 252.401 45.1126C262.69 46.1692 272.987 47.1406 283.286 48.0806C288.713 48.5758 289.875 49.6885 289.735 55.2742C289.65 58.6541 289.26 62.03 288.919 65.3988C288.596 68.5912 289.83 69.9859 293.176 70.1731C299.684 70.5373 306.166 71.3502 312.669 71.8284C315.889 72.0651 317.226 73.6233 317.055 76.7567C316.476 87.3786 313.854 97.6763 312.093 108.11C311.668 110.628 309.797 111.055 307.672 111.153C304.554 111.296 301.423 111.345 298.326 111.689C296.24 111.921 294.294 112.826 294.761 115.468C295.21 118.01 297.295 117.159 298.888 117.06C332.279 114.971 365.61 111.788 399.09 111.366C404.871 111.293 410.701 111.546 416.472 112.482C419.746 113.012 420.574 114.7 419.641 117.516C418.798 120.063 417.768 122.554 416.709 125.023C410.342 139.856 403.559 154.478 394.718 168.058C390.946 173.851 390.822 174.044 384.045 172.273C373.875 169.615 363.64 168.912 353.311 170.949C347.284 172.138 342.015 175.474 336.217 177.364C331.192 179.001 326.115 180.179 320.408 179.992ZM290.586 91.5371C290.417 90.8114 290.083 90.0702 289.291 90.0602C280.371 89.9477 271.406 90.0953 262.727 92.1208C259.282 92.9249 260.331 97.1963 260.341 99.8874C260.349 102.16 262.937 101.511 264.507 101.402C270.856 100.963 277.193 100.352 283.54 99.8801C289.859 99.4107 290.645 98.6021 290.586 91.5371Z" fill="black"/>
<path d="M311.872 189.916C324.551 193.682 336.107 191.053 347.116 185.316C353.578 181.949 359.989 180.112 367.054 183.129C369.469 184.161 372 185.396 372.092 188.295C372.192 191.433 369.324 192.311 366.944 193.179C345.016 201.176 322.456 204.261 299.199 201.558C292.899 200.826 287.111 202.812 281.327 204.664C269.664 208.398 257.961 211.632 245.509 210.894C242.355 210.707 239.072 210.639 236.41 209.091C225.213 202.581 213.509 204.349 201.662 206.282C187.647 208.569 173.573 210.387 159.342 208.293C155.99 207.8 152.586 207.39 149.499 205.824C145.932 204.014 145.51 201.838 148.085 198.734C148.175 198.625 148.278 198.526 148.37 198.418C149.961 196.553 153.059 195.059 151.734 192.172C150.318 189.085 146.882 190.245 144.433 190.558C139.815 191.15 135.304 192.523 130.712 193.375C121.335 195.115 111.93 196.298 102.477 193.792C99.6986 193.056 97.0254 192.063 94.962 190.022C93.1059 188.187 92.3995 185.824 93.5761 183.409C94.697 181.109 96.9438 180.448 99.3636 180.747C101.326 180.99 103.27 181.44 105.197 181.902C114.571 184.149 123.677 184.218 132.465 179.431C142.907 173.743 153.489 174.343 163.87 179.63C174.864 185.229 185.845 186.268 197.418 181.174C204.653 177.99 212.091 178.432 219.134 182.393C220.741 183.297 222.491 183.979 224.001 185.015C234.371 192.123 245.446 192.345 256.95 188.479C262.323 186.674 267.623 184.642 273.035 182.965C281.555 180.326 289.832 181.48 297.968 184.842C302.417 186.681 307.008 188.181 311.872 189.916Z" fill="black"/>
</svg>
