<svg width="512" height="256" viewBox="0 0 512 256" fill="none" xmlns="http://www.w3.org/2000/svg">
<path d="M197.793 70.3251C197.61 60.2382 197.997 50.5241 198.936 40.8425C199.111 39.0389 198.697 36.3109 201.554 36.0805C204.469 35.8454 206.427 37.8095 206.846 40.4193C207.593 45.0772 208.068 49.8194 208.149 54.535C208.34 65.5707 209.872 76.5017 210.414 87.5045C210.54 90.045 211.743 90.9679 214.301 90.8743C234.826 90.1237 255.353 89.4322 275.882 88.8085C278.363 88.7332 279.164 87.7708 279.142 85.3653C279.056 75.7568 279.059 66.1466 279.13 56.5378C279.207 46.096 280.479 35.7583 282.108 25.4603C282.236 24.6445 282.438 23.8231 282.735 23.0545C283.445 21.2219 283.778 18.8006 286.466 19.0131C289.113 19.2223 289.833 21.5242 290.125 23.6373C290.757 28.2052 291.261 32.8013 291.56 37.4025C292.592 53.2485 293.573 69.0985 294.419 84.9552C294.564 87.6622 295.375 88.6643 298.179 88.6897C310.529 88.8017 322.877 89.1483 335.227 89.3375C340.82 89.4232 346.37 89.9134 351.878 90.8234C355.167 91.3667 358.22 92.381 358.667 96.4265C359.057 99.9587 356.644 103.547 352.961 104.952C350.365 105.943 347.683 106.275 344.915 106.065C330.362 104.962 315.807 103.899 301.257 102.764C297.046 102.435 296.207 102.975 296.756 107.156C298.401 119.699 300.192 132.223 302.019 144.741C302.976 151.296 304.255 157.805 305.126 164.369C305.466 166.932 306.535 167.758 309.006 167.822C323.251 168.191 337.493 168.635 351.733 169.147C355.763 169.292 359.803 169.585 363.8 170.103C368.393 170.698 370.205 172.837 369.982 176.802C369.713 181.582 367.166 184.354 362.808 184.477C355.67 184.679 348.581 183.852 341.473 183.404C331.525 182.778 321.573 182.205 311.622 181.635C310.937 181.596 310.24 181.765 309.325 181.861C309.096 186.066 310.406 189.878 311.324 193.713C313.307 201.998 315.552 210.221 317.537 218.505C318.511 222.572 316.888 225.056 312.777 225.527C309.617 225.89 306.358 225.826 303.185 225.52C298.58 225.076 297.006 221.606 296.274 217.638C294.793 209.611 293.366 201.573 291.937 193.537C291.399 190.509 290.909 187.472 290.412 184.437C290.028 182.089 289.14 180.824 286.281 180.762C265.97 180.326 245.658 180.012 225.342 180.163C221.092 180.195 220.698 180.757 221.389 185.008C223.764 199.601 226.099 214.199 229.909 228.515C230.844 232.027 229.71 233.896 226.264 235.03C222.685 236.207 218.99 236.26 215.361 235.473C211.906 234.723 209.685 232.404 209.204 228.886C208.163 221.266 207.269 213.626 206.391 205.986C205.567 198.812 204.77 191.634 204.104 184.444C203.805 181.221 202.394 180.081 199.08 180.162C183.524 180.544 167.963 180.704 152.403 180.926C150.861 180.948 149.292 181.009 147.779 180.772C145.684 180.445 143.268 180.168 143.021 177.386C142.779 174.655 144.625 173.328 146.988 172.671C150.432 171.714 153.984 171.413 157.533 171.223C171.401 170.479 185.269 169.73 199.143 169.118C201.895 168.997 202.229 167.533 202.084 165.399C201.586 158.07 201.219 150.73 200.577 143.414C199.521 131.371 198.894 119.305 198.601 107.227C198.52 103.881 197.267 102.839 194.132 102.985C182.863 103.512 171.588 103.918 160.318 104.4C158.416 104.482 156.544 104.628 154.661 104.102C152.712 103.557 151.536 102.489 151.494 100.384C151.452 98.3231 152.449 97.0219 154.402 96.4419C158.639 95.1834 163.05 94.9407 167.397 94.4794C176.243 93.5407 185.116 92.8037 193.994 92.2332C196.919 92.0452 197.937 90.9998 197.857 88.1175C197.695 82.3093 197.799 76.4937 197.793 70.3251ZM214.552 129.913C215.26 141.618 217.303 153.176 218.405 164.838C218.639 167.312 219.729 168.595 222.553 168.4C227.998 168.025 233.464 167.847 238.923 167.805C253.062 167.697 267.201 167.699 281.339 167.671C287.475 167.659 287.795 167.295 286.788 161.163C286.731 160.814 286.578 160.479 286.529 160.129C285.113 150.056 283.524 140.006 282.631 129.865C281.935 121.966 281.185 114.071 280.431 106.177C280.221 103.979 279.52 102.458 276.747 102.469C256.431 102.551 236.114 102.529 215.798 102.497C213.372 102.494 212.399 103.488 212.473 105.926C212.71 113.745 213.787 121.487 214.552 129.913Z" fill="black"/>
<path fill-rule="evenodd" clip-rule="evenodd" d="M228.551 124.986C233.081 116.552 243.27 111.672 252.908 113.318C263.233 115.082 271.522 122.837 272.784 132.868C273.916 141.873 270.582 149.543 263.152 154.914C255.108 160.728 246.507 159.714 238.002 155.758C236.493 155.055 235.207 153.878 233.514 152.642C225.668 144.158 223.884 133.676 228.551 124.986ZM251.457 123.179C245.921 122.249 240.068 125.008 237.466 129.775C234.785 134.687 235.809 140.61 240.317 145.406C241.289 146.105 242.028 146.771 242.895 147.168C247.781 149.404 252.722 149.976 257.343 146.69C261.611 143.655 263.527 139.32 262.876 134.23C262.152 128.56 257.389 124.176 251.457 123.179Z" fill="black"/>
</svg>
