<svg width="512" height="256" viewBox="0 0 512 256" fill="none" xmlns="http://www.w3.org/2000/svg">
<path d="M358.671 206.667C352.527 205.462 346.822 204.258 341.078 203.269C336.043 202.402 332.633 199.569 330.365 195.198C327.379 189.44 325.273 183.334 323.227 177.206C322.187 174.09 322.385 171.1 323.539 168.006C333.717 140.709 343.833 113.388 353.948 86.068C355.713 81.3001 358.978 79.0261 364.21 79.0725C396.785 79.3621 429.064 82.9575 461.272 87.4084C466.912 88.1877 470.291 90.9946 471.149 96.8328C472.564 106.469 474.337 116.054 475.806 125.683C476.47 130.028 475.321 134.198 474 138.341C466.358 162.309 458.361 186.153 448.955 209.507C445.96 216.945 443.766 218.655 435.691 217.798C422.121 216.359 408.599 214.421 395.09 212.465C383.067 210.724 371.09 208.674 358.671 206.667ZM401.474 179.279C408.433 180.024 415.392 180.773 422.351 181.511C431.427 182.473 432.707 181.744 435.861 173.229C443.918 151.48 449.714 129.053 455.92 106.754C457.448 101.266 456.137 99.5 450.402 98.7886C424.932 95.6294 399.393 93.2024 373.761 91.7288C369.188 91.4659 366.733 93.1677 365.121 97.3688C356.762 119.163 348.204 140.883 339.734 162.635C337.536 168.279 338.199 169.589 344.259 170.729C362.925 174.241 381.768 176.611 401.474 179.279Z" fill="black"/>
<path d="M395.838 124.445C391.829 126.02 388.792 128.255 386.458 131.405C380.179 139.876 384.577 150.802 395.049 152.646C400.129 153.539 405.126 153.034 409.575 150.404C413.179 148.273 415.486 149.041 418.061 152.135C424.732 160.151 424.761 161.355 414.74 164.701C399.032 169.945 383.747 169.815 370.837 157.751C361.985 149.479 360.863 136.551 367.41 126.369C379.32 107.846 409.102 101.996 427.308 114.613C428.126 115.179 428.916 115.796 429.658 116.456C434.264 120.552 434.167 121.656 428.912 124.588C426.879 125.723 424.752 126.695 422.754 127.884C420.746 129.081 419.05 128.856 417.291 127.384C410.917 122.049 403.808 121.456 395.838 124.445Z" fill="black"/>
<path d="M308.714 179.178C307.079 183.218 305.693 186.946 304.094 190.583C300.924 197.794 297.898 199.405 289.968 198.436C277.077 196.86 264.153 195.525 251.298 193.703C234.817 191.366 218.291 189.263 201.982 185.844C196.042 184.599 191.683 181.353 189.135 175.847C186.907 171.036 184.889 166.122 182.497 161.394C179.834 156.129 180.053 151.058 182.033 145.602C190.283 122.882 198.33 100.091 206.429 77.3173C207.648 73.8884 208.662 70.386 209.922 66.9727C212.551 59.8529 215.447 57.5361 223.004 58.0746C233.461 58.8198 243.893 60.0536 254.295 61.393C275.428 64.1141 296.523 67.1282 317.655 69.8592C329.423 71.3798 330.478 72.9237 333.6 84.4728C336.824 96.4037 335.602 107.405 331.145 118.755C323.338 138.631 316.254 158.787 308.714 179.178ZM303.121 80.5019C290.902 78.9786 278.687 77.4262 266.463 75.9402C253.907 74.4137 241.34 72.9771 228.784 71.4464C225.136 71.0017 222.704 72.1993 221.432 75.7805C213.183 99.001 204.815 122.18 196.64 145.426C194.98 150.148 196.125 151.688 201.114 152.501C227.401 156.782 253.762 160.541 280.2 163.805C285.113 164.412 287.879 162.855 289.505 158.555C297.871 136.43 305.632 114.096 312.556 91.4877C315.157 82.9949 314.725 82.6269 305.952 80.9974C305.297 80.8756 304.648 80.7229 303.121 80.5019Z" fill="black"/>
<path d="M219.047 131.178C223.986 117.24 228.893 103.704 233.52 90.0742C235.045 85.5819 237.645 84.2362 242.197 85.1121C252.971 87.1855 264.075 87.6332 274.444 91.693C277.254 92.7932 279.98 93.9766 282.219 96.0671C288.436 101.87 287.83 110.514 280.732 115.211C278.285 116.83 275.575 118.058 273.049 119.43C273.471 121.241 274.941 121.58 275.938 122.368C283.051 127.987 283.067 137.655 275.899 143.204C272.104 146.141 267.702 147.651 262.955 147.986C247.961 149.046 233.492 145.356 218.871 143.048C216.476 142.67 215.839 141.143 216.421 139.08C217.138 136.537 218.068 134.053 219.047 131.178ZM255.659 134.643C258.689 134.16 261.333 132.889 261.294 129.508C261.258 126.418 258.529 125.2 255.944 124.421C253.741 123.757 251.434 123.407 249.156 123.012C241.12 121.623 238.318 124.396 239.191 132.978C244.212 134.837 249.49 134.881 255.659 134.643ZM263.845 102.346C262.107 101.786 260.402 101.083 258.626 100.691C249.55 98.6894 248.388 99.4642 246.679 108.405C246.651 108.547 246.772 108.718 247.008 109.437C251.977 110.611 257.126 112.78 262.667 110.662C266.888 109.049 267.398 106.473 263.845 102.346Z" fill="black"/>
<path d="M39.8056 149.245C43.9396 127.066 48.0657 105.321 52.9775 83.7261C54.1632 78.5132 57.1852 75.5576 62.2166 74.5633C73.6415 72.3057 85.075 70.0767 96.5463 68.068C115.076 64.8232 133.669 61.9294 152.169 58.5292C157.835 57.4879 162.145 58.9189 165.377 63.2645C170.324 69.9157 175.018 76.7558 179.699 83.5969C182.49 87.677 181.422 92.3114 180.756 96.6397C176.864 121.936 172.805 147.208 168.703 172.472C167.362 180.732 164.579 183.359 156.21 184.99C126.773 190.726 97.033 194.347 67.2222 197.463C62.3004 197.977 57.9117 196.573 54.3636 193.179C48.9619 188.012 43.7551 182.645 38.3919 177.437C35.9451 175.061 35.7223 172.153 36.2097 169.156C37.2698 162.64 38.5225 156.154 39.8056 149.245ZM149.582 130.589C152.339 113.294 154.638 95.9455 155.464 78.4372C155.774 71.8772 154.501 70.6202 148.049 71.6449C126.514 75.0646 104.972 78.4525 83.4861 82.157C63.739 85.5617 67.928 83.7915 64.2178 100.898C59.9828 120.424 56.0782 140.021 52.1026 159.602C50.9927 165.068 52.3917 166.843 57.4514 166.131C84.9833 162.26 112.497 158.261 140.02 154.33C144.027 153.758 146.381 151.372 147.069 147.627C148.052 142.275 148.667 136.856 149.582 130.589Z" fill="black"/>
<path d="M91.8392 136.903C87.3831 138.277 86.5103 142.177 84.9294 145.299C83.3908 148.338 81.3676 150.086 77.9901 149.835C73.9494 149.536 69.9355 151.895 65.9532 150.263C65.2374 147.84 66.7229 146.46 67.6192 144.98C77.5786 128.54 86.7358 111.656 95.568 94.6102C98.338 89.2645 103.174 90.083 107.49 89.0423C112.59 87.8125 115.87 89.1192 118.227 94.5297C124.169 108.172 130.933 121.46 137.285 134.928C139.759 140.173 139.183 141.095 133.418 141.91C131.771 142.144 130.041 142.04 128.467 142.495C123.084 144.051 119.02 143.329 117.419 137.158C116.717 134.45 114.619 133.701 111.969 134.075C105.389 135.002 98.8034 135.896 91.8392 136.903ZM105.903 110.613C105.285 109.947 104.427 109.458 103.801 110.279C101.135 113.777 99.0165 117.551 97.8776 122.027C102.38 123.297 105.96 122.328 109.776 120.987C109.6 120.009 109.582 119.179 109.296 118.453C108.331 116.002 107.271 113.587 105.903 110.613Z" fill="black"/>
</svg>
