<svg width="512" height="256" viewBox="0 0 512 256" fill="none" xmlns="http://www.w3.org/2000/svg">
<path d="M275.429 81.721C283.402 81.7478 290.832 81.8466 298.259 81.7562C301.651 81.7149 303.007 82.8693 303 85.897C302.928 115.555 302.926 145.213 302.977 174.871C302.982 177.913 301.492 179.013 298.155 179C268.821 178.881 239.487 178.811 210.152 178.768C206.617 178.763 205.012 177.544 205.02 174.275C205.09 144.617 205.105 114.958 205 85.3004C204.985 80.928 208.133 80.9937 211.476 81.018C232.613 81.1718 253.761 80.5856 275.429 81.721Z" fill="black"/>
<path d="M312.922 61.3246C304.674 43.9311 315.435 30.1117 325.998 26.4685C338.647 22.1056 352.554 27.7545 357.95 39.5652C363.158 50.9629 358.263 65.0618 346.946 71.2587C335.324 77.6229 320.836 73.5225 312.922 61.3246Z" fill="black"/>
<path d="M193.535 218.856C184.119 234.58 164.155 231.587 156.667 222.253C150.531 214.604 149.189 205.588 153.569 197.175C157.805 189.037 166.828 184.678 177.194 185.761C186.01 186.681 193.063 192.84 195.712 201.657C197.504 207.623 196.345 213.134 193.535 218.856Z" fill="black"/>
<path d="M355.66 202.912C357.978 217.085 350.607 227.86 337.482 230.098C325.066 232.215 313.759 224.248 311.359 211.691C309.424 201.564 315.498 190.867 324.956 187.746C336.558 183.916 349.343 188.733 354.135 198.775C354.705 199.969 355.06 201.266 355.66 202.912Z" fill="black"/>
<path d="M166.581 154.403C166.424 131.985 166.235 110.051 166.15 88.1175C166.141 85.8524 165.203 82.5179 168.133 81.7872C171.859 80.858 176.056 80.5121 179.698 82.1027C181.543 82.9084 180.885 85.6075 180.889 87.5007C180.932 107.513 180.94 127.524 180.936 147.536C180.934 155.928 180.741 164.323 180.904 172.711C180.991 177.158 179.519 179.477 174.68 178.918C173.227 178.75 171.731 178.831 170.262 178.924C167.53 179.097 166.492 177.951 166.545 175.221C166.677 168.446 166.583 161.666 166.581 154.403Z" fill="black"/>
<path d="M341.876 99.7821C341.877 123.838 341.914 147.386 341.851 170.932C341.844 173.502 342.806 177.242 339.931 178.165C336.322 179.324 332.2 179.269 328.48 178.046C326.456 177.381 327.098 174.844 327.093 173.07C327.047 156.119 327.062 139.168 327.062 122.217C327.062 110.352 327.185 98.4844 327.004 86.6219C326.942 82.54 328.076 80.8124 332.202 81.016C341.875 81.4935 341.808 78.8596 341.942 91.1371C341.971 93.8484 341.905 96.5609 341.876 99.7821Z" fill="black"/>
<path d="M160.146 64.1953C153.222 56.6624 151.649 47.3572 155.767 39.642C159.764 32.1537 168.755 27.8203 177.26 29.2821C186.371 30.8481 193.687 37.7337 194.8 46.6397C195.799 54.635 192.857 61.444 186.3 66.2121C179.201 71.3742 171.612 70.4744 164.106 66.9615C162.775 66.3381 161.64 65.2929 160.146 64.1953Z" fill="black"/>
<path d="M276.806 56.8982C255.495 56.8787 234.888 56.7134 214.29 56.9284C207.673 56.9975 204.371 55.724 205.162 50.9411C205.347 49.822 205.32 48.661 205.119 47.5422C204.436 43.7551 206.682 42.3999 212.321 42.4535C231.026 42.6313 249.738 42.5655 268.446 42.4893C277.198 42.4537 285.949 42.2002 294.698 42.0071C300.584 41.8771 303.07 43.5303 302.999 47.7941C302.814 58.8695 302.82 56.8325 290.303 56.8834C286.04 56.9007 281.777 56.895 276.806 56.8982Z" fill="black"/>
<path d="M231.194 217.898C252.505 217.879 273.112 217.713 293.71 217.928C300.327 217.998 303.629 216.724 302.838 211.941C302.653 210.822 302.68 209.661 302.881 208.542C303.564 204.755 301.318 203.4 295.679 203.453C276.974 203.631 258.262 203.566 239.554 203.489C230.802 203.454 222.051 203.2 213.302 203.007C207.416 202.877 204.93 204.53 205.001 208.794C205.186 219.87 205.18 217.833 217.697 217.883C221.96 217.901 226.223 217.895 231.194 217.898Z" fill="black"/>
</svg>
