<svg width="2048" height="2048" viewBox="0 0 2048 2048" fill="none" xmlns="http://www.w3.org/2000/svg">
<g clip-path="url(#clip0_59_2081)">
<rect width="1024" height="1024" fill="#FDC202"/>
<path d="M689.5 256.5L731 353.5L737 388.5L803 471C791.333 476.333 764.3 487.5 749.5 489.5V624.5C710.667 625.5 626.3 625.1 599.5 615.5L603 685L629.5 734L725.5 1029.5V1045H488L300.5 644L315 636L328.5 604.5L343 611.5L360 563L371.5 486.75L360 343L432.5 308.5L533 256.5H689.5Z" fill="white"/>
<path d="M519.634 1022.11L391.466 764.417L341.833 675.165L302.88 616.083L292.827 620.483L236.283 662.594L230.628 671.394L123.822 710.991L-10 767.559V1024L519.634 1022.11Z" fill="black"/>
<path d="M714.974 138.398L719 126L684 154.5L657.801 164.797H650.89L661.571 142.17L660.314 121.428L657.801 109L647 130.227L634.5 140.5L602 152.226H594.974L604.398 132.742L607.5 103.5L585 126L567.5 135.5L541.5 145L527 149L522.094 150.969L528.5 139L531.518 130.227L536.5 111L516 127L468 147.826L442.932 154.112L452.356 130.856L456.5 121L420.5 137.141L408.5 143.5L395.5 151L385.131 168.568L379.476 162.283L377.591 137.141L379.476 121L364 145.5L353 173.5L347 200L333 195L304.5 180L311.5 198L320.5 216.5L323.5 225.5L312.5 226.393L295.916 229.5L252 251L266.387 252.163L295.916 260.334L281.466 273L275.5 281.5L263.5 296.5L252 332L281.466 313.759L279.5 332V363L285.5 391.5L310.995 439.465L337.382 511.118L355.602 541.916L371.937 547.573L410.89 550.715L427.225 492.89L451.099 492.262L466.806 485.977L465.55 470.892L451.099 475.291H432.251L418.429 469.006L401.466 452.664L392.042 435.065L387.644 418.095L389.529 386.04L399.581 367.184L419.686 353.985L445.445 352.099L470.576 364.041L493.194 389.811L508.272 421.238L547.853 417.467L534.031 387.926L534.66 364.67L619.476 355.87L630.785 357.756L635.183 385.411L643.351 405.524L654.66 418.724L665.968 425.009L686.701 426.895L704.921 418.724L719.372 402.382L733.194 368.441L736.335 366.555L747.644 376.612L770.262 405.524L774.031 404.267L785.969 360.899V343.928L780.314 341.414L734.45 336.386L687.958 326.958H647.12L547.225 340.786L528.377 338.9L543.455 309.988L535.916 271.019L536.544 260.334L618.22 245.249L687.958 237.706L706.178 225.136L731.309 198.109L737.5 189.5L711.5 197.48H689.5H677.906L678.534 193.709L692.984 181.139L703.037 166.682L714.974 138.398Z" fill="black"/>
<path d="M629.477 694.021V700.306L657.121 775.73L688.534 880.695L724.346 1024H970L922.88 863.724L901.518 806.528L853.142 787.672L831.152 782.015L826.754 783.272L780.89 762.53L726.859 745.56L697.33 723.562L629.477 694.021Z" fill="black"/>
<path d="M557.277 710.362L519.581 770.701L530.89 766.93L547.853 780.129L579.895 1024H665.969L650.262 982.517L643.979 949.833L628.272 895.779L612.565 855.553L600.628 812.813L586.178 783.272L589.319 778.872L602.513 776.358L594.974 742.417L581.152 721.047L557.277 710.362Z" fill="black"/>
</g>
<g clip-path="url(#clip1_59_2081)">
<rect width="1024" height="1024" transform="translate(1024)" fill="#2C8252"/>
<rect x="1633" y="365" width="85" height="92" fill="white"/>
<rect x="1367" y="323" width="203" height="189" fill="white"/>
<path d="M1635.39 152.091L1651 161.5L1619 256L1573 315L1531 341L1508 319L1542 201L1536.5 140.5L1581.22 136.039L1635.39 152.091Z" fill="white"/>
<path d="M1423.73 348.745L1445.8 346.738L1477.91 358.777L1493.96 376.836L1506 412.954L1526.07 429.006L1532.08 424.993L1534.09 402.921L1552.15 374.83H1634.42L1654.48 380.849L1662.51 420.98L1680.57 445.059L1692.61 449.072L1706.65 443.052L1718.69 429.006L1730.73 396.902L1738.76 392.889L1798.95 459.104L1746.78 481.176L1740.76 603.575L1686.59 605.581L1592.28 597.555L1582.25 603.575L1574.22 627.653L1566.2 685.843L1592.28 713.934L1620.37 772.124L1648.46 864.425L1666.52 964.751H1650.47L1582.25 806.235V798.209L1598.3 794.196L1600.31 788.176L1564.19 744.032L1550.14 736.006H1532.08L1499.98 786.17L1501.99 794.196H1516.03L1540.11 808.242L1566.2 1012.91L1576.23 1041H1544.12L1548.14 1028.96L1330 670L1365.54 619.627L1387.61 585.516L1403.67 579L1435.77 595.549L1503.99 565.451L1548.14 535.353L1508.01 495.222L1493.96 471.144H1451.82L1423.73 459.104L1403.67 441.045L1391.63 418.974L1387.61 392.889L1399.65 364.797L1423.73 348.745Z" fill="white"/>
<path d="M1781.87 268.471L1783.88 322.647H1757.79L1743.75 342.712L1753.78 356.758L1781.87 358.765L1777.86 404.915L1769.83 414.948L1755.78 398.895H1739.73L1727.69 428.993L1709.63 449.059H1691.58L1681.54 439.026L1665.49 384.85L1649.44 376.824H1561.15L1541.09 404.915L1539.08 435.013L1517.01 416.954L1506.97 382.843L1484.9 358.765L1456.81 348.732L1416.68 358.765L1394.61 394.882L1408.65 443.039L1448.78 473.137L1502.96 477.15L1517.01 503.235L1557.14 537.346L1456.81 593.529L1414.67 601.556L1402.63 587.51H1350.46L1300.3 567.444L1278.23 575.471L1234.09 549.386L1212.01 523.301L1187.93 525.307L1173.89 499.222L1165.86 459.092H1149.81L1143.79 475.144L1139.78 467.118L1141.78 402.909L1123.73 396.889L1165.86 332.68L1199.97 260.444L1264.18 182.19L1350.46 138.046L1420.69 124L1506.97 126.007L1565.16 138.046L1559.14 208.275L1521.02 318.634L1531.05 324.654L1589.24 276.497L1613.32 240.379L1641.41 156.105L1731.71 204.261L1761.8 234.359L1781.87 268.471Z" fill="black"/>
<path d="M1557.14 1034.97L1551.12 1045H907.02L901 1036.97L959.19 848.36L983.268 798.196L1268.2 709.909L1330.4 663.758L1557.14 1034.97Z" fill="black"/>
<path d="M1536.1 732L1558.17 738.019L1602.31 790.189L1582.25 794.202L1580.24 806.242L1636.42 938.673L1658.5 968.771L1668.53 962.751L1650.47 860.418L1600.31 717.954L1833.06 800.222L1895.27 1030.97L1889.25 1039H1578.23L1562.18 968.771L1542.12 804.235L1516.03 790.189H1499.98L1536.1 732Z" fill="black"/>
<path d="M1635.39 152.091L1633.39 186.202L1607.3 246.399L1561.15 302.582L1531.05 322.647L1523.03 318.634L1563.16 200.248L1567.17 140.052L1581.22 136.039L1635.39 152.091Z" fill="white"/>
</g>
<rect width="1024" height="1024" transform="translate(0 1024)" fill="#FC1D11"/>
<g clip-path="url(#clip2_59_2081)">
<rect x="629" y="1389" width="85" height="92" fill="white"/>
<rect x="363" y="1347" width="203" height="189" fill="white"/>
<path d="M631.392 1176.09L647 1185.5L615 1280L569 1339L527 1365L504 1343L538 1225L532.5 1164.5L577.216 1160.04L631.392 1176.09Z" fill="white"/>
<path d="M419.732 1372.74L441.804 1370.74L473.908 1382.78L489.961 1400.84L502 1436.95L522.065 1453.01L528.085 1448.99L530.091 1426.92L548.15 1398.83H630.418L650.484 1404.85L658.51 1444.98L676.568 1469.06L688.608 1473.07L702.653 1467.05L714.693 1453.01L726.732 1420.9L734.758 1416.89L794.954 1483.1L742.784 1505.18L736.765 1627.57L682.588 1629.58L588.281 1621.56L578.248 1627.57L570.222 1651.65L562.196 1709.84L588.281 1737.93L616.372 1796.12L644.464 1888.42L662.523 1988.75H646.47L578.248 1830.24V1822.21L594.301 1818.2L596.307 1812.18L560.189 1768.03L546.144 1760.01H528.085L495.98 1810.17L497.987 1818.2H512.033L536.111 1832.24L562.196 2036.91L572.229 2065H540.124L544.137 2052.96L326 1694L361.542 1643.63L383.614 1609.52L399.667 1603L431.771 1619.55L499.993 1589.45L544.137 1559.35L504.006 1519.22L489.961 1495.14H447.823L419.732 1483.1L399.667 1465.05L387.627 1442.97L383.614 1416.89L395.653 1388.8L419.732 1372.74Z" fill="white"/>
<path d="M777.869 1292.47L779.876 1346.65H753.791L739.745 1366.71L749.778 1380.76L777.869 1382.76L773.856 1428.92L765.83 1438.95L751.784 1422.9H735.732L723.693 1452.99L705.634 1473.06H687.575L677.543 1463.03L661.49 1408.85L645.438 1400.82H557.15L537.085 1428.92L535.079 1459.01L513.007 1440.95L502.974 1406.84L480.902 1382.76L452.811 1372.73L412.68 1382.76L390.608 1418.88L404.654 1467.04L444.784 1497.14L498.961 1501.15L513.007 1527.24L553.137 1561.35L452.811 1617.53L410.673 1625.56L398.634 1611.51H346.464L296.301 1591.44L274.229 1599.47L230.085 1573.39L208.013 1547.3L183.935 1549.31L169.889 1523.22L161.863 1483.09H145.811L139.791 1499.14L135.778 1491.12L137.784 1426.91L119.726 1420.89L161.863 1356.68L195.974 1284.44L260.183 1206.19L346.464 1162.05L416.693 1148L502.974 1150.01L561.164 1162.05L555.144 1232.27L517.02 1342.63L527.052 1348.65L585.242 1300.5L609.32 1264.38L637.412 1180.1L727.706 1228.26L757.804 1258.36L777.869 1292.47Z" fill="black"/>
<path d="M553.138 2058.97L547.118 2069H-96.98L-103 2060.97L-44.81 1872.36L-20.7316 1822.2L264.197 1733.91L326.399 1687.76L553.138 2058.97Z" fill="black"/>
<path d="M532.098 1756L554.17 1762.02L598.313 1814.19L578.248 1818.2L576.241 1830.24L632.424 1962.67L654.496 1992.77L664.529 1986.75L646.47 1884.42L596.307 1741.95L829.065 1824.22L891.268 2054.97L885.248 2063H574.235L558.183 1992.77L538.117 1828.24L512.032 1814.19H495.98L532.098 1756Z" fill="black"/>
<path d="M631.393 1176.09L629.386 1210.2L603.301 1270.4L557.151 1326.58L527.053 1346.65L519.027 1342.63L559.157 1224.25L563.17 1164.05L577.216 1160.04L631.393 1176.09Z" fill="white"/>
</g>
<g clip-path="url(#clip3_59_2081)">
<rect width="1024" height="1024" transform="translate(1024 1024)" fill="#3C35B6"/>
<path d="M1669.5 1280.5L1711 1377.5L1717 1412.5L1783 1495C1771.33 1500.33 1744.3 1511.5 1729.5 1513.5V1648.5C1690.67 1649.5 1606.3 1649.1 1579.5 1639.5L1583 1709L1609.5 1758L1705.5 2053.5V2069H1468L1280.5 1668L1295 1660L1308.5 1628.5L1323 1635.5L1340 1587L1351.5 1510.75L1340 1367L1412.5 1332.5L1513 1280.5H1669.5Z" fill="white"/>
<path d="M1499.63 2046.11L1371.47 1788.42L1321.83 1699.17L1282.88 1640.08L1272.83 1644.48L1216.28 1686.59L1210.63 1695.39L1103.82 1734.99L970 1791.56V2048L1499.63 2046.11Z" fill="black"/>
<path d="M1694.97 1162.4L1699 1150L1664 1178.5L1637.8 1188.8H1630.89L1641.57 1166.17L1640.31 1145.43L1637.8 1133L1627 1154.23L1614.5 1164.5L1582 1176.23H1574.97L1584.4 1156.74L1587.5 1127.5L1565 1150L1547.5 1159.5L1521.5 1169L1507 1173L1502.09 1174.97L1508.5 1163L1511.52 1154.23L1516.5 1135L1496 1151L1448 1171.83L1422.93 1178.11L1432.36 1154.86L1436.5 1145L1400.5 1161.14L1388.5 1167.5L1375.5 1175L1365.13 1192.57L1359.48 1186.28L1357.59 1161.14L1359.48 1145L1344 1169.5L1333 1197.5L1327 1224L1313 1219L1284.5 1204L1291.5 1222L1300.5 1240.5L1303.5 1249.5L1292.5 1250.39L1275.92 1253.5L1232 1275L1246.39 1276.16L1275.92 1284.33L1261.47 1297L1255.5 1305.5L1243.5 1320.5L1232 1356L1261.47 1337.76L1259.5 1356V1387L1265.5 1415.5L1290.99 1463.47L1317.38 1535.12L1335.6 1565.92L1351.94 1571.57L1390.89 1574.72L1407.22 1516.89L1431.1 1516.26L1446.81 1509.98L1445.55 1494.89L1431.1 1499.29H1412.25L1398.43 1493.01L1381.47 1476.66L1372.04 1459.07L1367.64 1442.1L1369.53 1410.04L1379.58 1391.18L1399.69 1377.98L1425.44 1376.1L1450.58 1388.04L1473.19 1413.81L1488.27 1445.24L1527.85 1441.47L1514.03 1411.93L1514.66 1388.67L1599.48 1379.87L1610.79 1381.76L1615.18 1409.41L1623.35 1429.52L1634.66 1442.72L1645.97 1449.01L1666.7 1450.89L1684.92 1442.72L1699.37 1426.38L1713.19 1392.44L1716.33 1390.56L1727.64 1400.61L1750.26 1429.52L1754.03 1428.27L1765.97 1384.9V1367.93L1760.31 1365.41L1714.45 1360.39L1667.96 1350.96H1627.12L1527.23 1364.79L1508.38 1362.9L1523.46 1333.99L1515.92 1295.02L1516.54 1284.33L1598.22 1269.25L1667.96 1261.71L1686.18 1249.14L1711.31 1222.11L1717.5 1213.5L1691.5 1221.48H1669.5H1657.91L1658.53 1217.71L1672.98 1205.14L1683.04 1190.68L1694.97 1162.4Z" fill="black"/>
<path d="M1609.48 1718.02V1724.31L1637.12 1799.73L1668.53 1904.69L1704.35 2048H1950L1902.88 1887.72L1881.52 1830.53L1833.14 1811.67L1811.15 1806.01L1806.75 1807.27L1760.89 1786.53L1706.86 1769.56L1677.33 1747.56L1609.48 1718.02Z" fill="black"/>
<path d="M1537.28 1734.36L1499.58 1794.7L1510.89 1790.93L1527.85 1804.13L1559.9 2048H1645.97L1630.26 2006.52L1623.98 1973.83L1608.27 1919.78L1592.57 1879.55L1580.63 1836.81L1566.18 1807.27L1569.32 1802.87L1582.51 1800.36L1574.97 1766.42L1561.15 1745.05L1537.28 1734.36Z" fill="black"/>
</g>
<defs>
<clipPath id="clip0_59_2081">
<rect width="1024" height="1024" fill="white"/>
</clipPath>
<clipPath id="clip1_59_2081">
<rect width="1024" height="1024" fill="white" transform="translate(1024)"/>
</clipPath>
<clipPath id="clip2_59_2081">
<rect width="1024" height="1024" fill="white" transform="translate(0 1024)"/>
</clipPath>
<clipPath id="clip3_59_2081">
<rect width="1024" height="1024" fill="white" transform="translate(1024 1024)"/>
</clipPath>
</defs>
</svg>
