<svg width="593" height="355" viewBox="0 0 593 355" fill="none" xmlns="http://www.w3.org/2000/svg">
<path d="M137.022 177.672C131.706 178.008 126.35 178.052 121.087 178.776C117.087 179.325 115.457 178.257 114.926 174.137C112.413 154.645 109.168 135.235 107.205 115.694C106.436 108.038 103.947 103.711 96.4606 101.817C90.6758 100.353 85.1653 97.8374 79.4382 96.1013C76.2062 95.1215 74.8544 93.5196 75.1669 90.047C77.3453 65.8449 79.2724 41.6195 81.5874 17.431C82.1877 11.1582 86.291 7.68516 92.6834 7.25693C119.768 5.44248 146.84 2.9466 173.957 2.22507C224.413 0.882606 274.896 0.136695 325.37 0.00760615C381.691 -0.136468 437.97 1.75434 494.109 6.69422C501.563 7.35017 505.933 10.354 506.53 17.2479C508.698 42.2781 510.362 67.3522 512.164 92.4134C512.218 93.1611 511.7 93.9499 510.813 95.1264C501.117 98.839 492.088 102.24 482.973 105.392C480.29 106.32 479.153 107.5 478.851 110.556C477.064 128.607 474.983 146.63 472.912 164.652C472.371 169.358 471.511 174.027 470.778 178.845C465.237 178.15 460.31 177.177 455.351 176.968C419.27 175.451 383.186 173.068 347.095 172.913C292.663 172.68 238.221 173.864 183.79 174.825C168.189 175.101 152.611 176.687 137.022 177.672Z" fill="black"/>
<path d="M115.998 242.444C115.998 242.444 115.831 242.645 115.901 243.148C116.487 245.683 117.004 247.716 117.446 249.452C237.123 256.91 356.191 258.019 475.338 249.34C475.584 248.229 475.814 247.439 475.928 246.633C482.248 202.127 488.613 157.628 494.748 113.097C495.178 109.978 496.275 108.757 499.054 108.148C503.432 107.188 507.765 106.022 512.117 104.943C533.583 101.34 555.177 100.765 576.849 102.313C580.497 102.573 584.121 103.171 587.753 103.635C591.254 104.083 592.671 105.601 592.453 109.586C590.638 142.736 586.102 175.542 580.584 208.239C575.785 236.676 569.615 264.788 561.277 292.422C559.932 296.881 558.04 299.265 553.18 299.312C541.526 299.425 529.874 299.804 518.221 300.09C516.764 300.126 515.308 300.253 513.263 300.372C518.745 317.864 524.095 334.936 529.772 353.052C524.036 353.589 519.007 354.352 513.965 354.459C507.812 354.59 501.625 354.415 495.504 353.831C493.787 353.667 491.682 351.942 490.72 350.35C482.116 336.099 473.395 321.897 465.45 307.278C462.539 301.923 459.559 299.885 453.343 299.9C361.019 300.114 268.696 300.031 176.372 300.027C165.04 300.027 153.705 300.234 142.378 300.007C138.712 299.934 136.806 301.129 135.029 304.34C126.812 319.195 118.227 333.847 109.898 348.641C107.789 352.387 104.921 354.1 100.618 354.04C91.177 353.907 81.7326 353.999 71.4449 353.999C76.0669 335.772 80.4585 318.454 85.0902 300.189C80.4081 300.189 76.3323 300.147 72.2577 300.198C64.595 300.292 56.927 300.298 49.273 300.621C45.173 300.794 42.8308 299.198 41.2637 295.426C25.2878 256.976 13.1839 217.38 7.18855 176.139C4.1009 154.899 2.45852 133.45 0.074903 112.105C-0.257372 109.13 0.445112 107.356 3.61636 106.741C29.6121 101.705 55.6594 99.2056 82.0149 104.116C86.1172 104.881 87.146 106.938 87.9001 110.598C96.702 153.318 105.683 196.002 114.622 238.694C114.724 239.182 114.901 239.653 115.191 240.802C115.559 241.796 115.778 242.12 115.998 242.444Z" fill="black"/>
<path d="M123.21 241.789C123.12 241.331 123.029 240.873 122.843 239.807C122.561 238.879 122.374 238.559 122.188 238.238C120.006 224.314 117.783 210.395 115.707 196.455C115.495 195.036 116.166 193.485 117.21 191.851C156.732 189.787 195.454 186.88 234.216 186.16C304.334 184.859 374.48 184.759 444.502 189.951C453.388 190.609 462.25 191.587 471.652 192.467C469.001 208.167 466.408 222.902 464.092 237.68C463.528 241.283 462.118 242.718 458.407 242.835C446.423 243.213 434.453 244.248 422.47 244.415C377.161 245.047 331.841 246.188 286.54 245.724C232.089 245.166 177.653 243.165 123.21 241.789Z" fill="black"/>
</svg>
