<svg width="380" height="380" viewBox="0 0 380 380" fill="none" xmlns="http://www.w3.org/2000/svg">
<path fill-rule="evenodd" clip-rule="evenodd" d="M130.67 15L99.4972 39L75.3631 73L66.3129 108V153L118.603 151L117.598 112L120.615 98L130.67 79L143.743 66L161.844 57L198.045 52L216.145 55L232.235 62L251.341 83L263.408 120L262.402 165L257.374 168L81.3967 166L13.0168 174L10 179L13.0168 228L36.1453 366L41.1732 370L243.296 380H302.626L351.899 375L355.922 370L366.983 265L370 210L367.989 175L310.67 165L311.676 118L301.62 73L284.525 43L261.397 20L237.263 7L203.073 0L162.849 3L130.67 15ZM188.994 196H203.073L218.156 201L230.223 214L236.257 229L232.235 251L213.128 269L228.212 338L223.184 341L167.877 342L162.849 339L177.933 269L169.888 265L156.816 249L153.799 229L158.827 216L168.883 205L188.994 196Z" fill="black"/>
</svg>
