<svg width="620" height="145" viewBox="0 0 620 145" fill="none" xmlns="http://www.w3.org/2000/svg">
<path fill-rule="evenodd" clip-rule="evenodd" d="M75 138.5L83.5 118L87.5 122L93.5 120L108.5 134L151.5 128L155.5 123L165.5 127H183.5L203.5 119L207.5 123L256.5 120L260.5 123H274.5L335.5 119L339.5 125H347.5L384.5 123L390.5 118L427.5 123L432.5 116L441.5 124L474.5 121L484.5 125L507.5 127L530.5 120L551.5 128H574.5L594.5 120L610 102.5L613 84.5L609 70.5L602 61.5L609 33.5L585.5 15L566.5 9L541.5 10L526.5 17L507.5 10L486.5 9L470.5 13L457.5 22L452.5 13L408.5 12L404.5 19L394.5 12L377.5 7H336.5L330.5 8L328.5 12L196.5 14L141.5 13L136.5 6H123.5L93.5 7L87.5 15L83.5 9L34.5 14L7 120.5L30.5 138L75 138.5ZM80.5 145H29.5L0 122.5L28.5 9L118.5 0H140.5L146.5 7L323.5 6L326.5 1L370.5 0L388.5 3L402.5 10L405.5 7H454.5L459.5 11L486.5 3H503.5L526.5 9L557.5 2L588.5 9L604.5 20L617 33.5L610 59.5L620 81.5L617 105.5L600.5 125L576.5 135H551.5L530.5 128L500.5 134L474.5 128L440.5 130L431.5 127L422.5 130L394.5 125L391.5 129L360.5 131H335.5L330.5 126L269.5 130H258.5L254.5 127L202.5 128L183.5 134L157.5 132L108.5 141L88.5 128L80.5 145Z" fill="white"/>
<path d="M75 138.5L83.5 118L87.5 122L93.5 120L108.5 134L151.5 128L155.5 123L165.5 127H183.5L203.5 119L207.5 123L256.5 120L260.5 123H274.5L335.5 119L339.5 125H347.5L384.5 123L390.5 118L427.5 123L432.5 116L441.5 124L474.5 121L484.5 125L507.5 127L530.5 120L551.5 128H574.5L594.5 120L610 102.5L613 84.5L609 70.5L602 61.5L609 33.5L585.5 15L566.5 9L541.5 10L526.5 17L507.5 10L486.5 9L470.5 13L457.5 22L452.5 13L408.5 12L404.5 19L394.5 12L377.5 7H336.5L330.5 8L328.5 12L196.5 14L141.5 13L136.5 6H123.5L93.5 7L87.5 15L83.5 9L34.5 14L7 120.5L30.5 138L75 138.5Z" fill="white"/>
<path fill-rule="evenodd" clip-rule="evenodd" d="M75.5 138L30.5 137L8 120.5L35.5 15L82.5 9L87.5 17L93.5 8L122.5 7H136.5L140.5 14L329.5 13L331.5 8L369.5 7L387.5 10L404.5 20L408.5 13L452.5 14L457.5 23L472.5 13L485.5 10L507.5 11L525.5 18L545.5 10H567.5L587.5 17L608 33.5L601 61.5L608 70.5L612 83.5L609 102.5L597.5 117L574.5 127H550.5L530.5 119L508.5 126L488.5 125L474.5 120L441.5 123L432.5 115L426.5 123L392.5 117L387.5 122L349.5 124H339.5L336.5 119L261.5 123L258.5 119L207.5 122L203.5 118L184.5 126H164.5L155.5 122L151.5 127L108.5 133L94.5 120L87.5 121L83.5 118L75.5 138ZM498 102.5L509.5 99L519 90.5L523 81.5V69.5L515.5 58L490.5 47L488 42.5L497.5 39L512.5 45L518.5 24L500.5 18H486.5L473.5 22L463 31.5L460 44.5L465 57.5L494 73.5L491.5 79L483.5 80L467.5 72L463.5 88L445 23.5L415 22.5L388.5 95L412.5 101L419.5 83L436.5 84L440.5 100L466.5 97L483.5 103L498 102.5ZM55 113.5L64 68.5L78.5 100L85 98.5L103.5 64L105 109.5L136 105.5L127.5 15L100.5 16L84.5 48L75.5 19L43 24.5L20 113.5H55ZM561 103.5L573.5 99L582 91.5L587 80.5V70.5L577.5 57L554.5 48L551 42.5L563.5 40L576.5 46L583 25.5L568.5 19L549.5 18L536.5 22L526 31.5L523 49.5L530.5 61L553.5 71L557 76.5L546.5 81L528.5 74L524 96.5L543.5 104L561 103.5ZM175 102.5L189.5 96L198 83.5L200 23.5H175L176 68.5L174 74.5L166.5 79L160 72.5L165 24.5L140.5 23L137 47.5L138 84.5L142 92.5L154.5 102L175 102.5ZM348 100.5L366.5 99L367 75.5L387.5 71L401 58.5L404 49.5L403 34.5L395.5 24L385.5 18L372.5 15L340 16.5V100.5H348ZM274 98.5L288 97.5L286 46.5L303 44.5V22.5L241.5 22L241 46.5L261 47.5V98.5H274ZM225 97.5L253.5 96L255 71.5L231 70.5V21.5L206.5 21L205 97.5H225ZM332 95.5L333 22.5L309.5 21L305 95.5H332Z" fill="black"/>
<path d="M379 44.5C379 49.1944 375.194 53 370.5 53H364V44.5V36H370.5C375.194 36 379 39.8056 379 44.5Z" fill="black"/>
<path d="M423 64H432L429 46H427L423 64Z" fill="#010100"/>
</svg>
