<svg width="449" height="415" viewBox="0 0 449 415" fill="none" xmlns="http://www.w3.org/2000/svg">
<path d="M440.954 269.073C425.219 318.42 395.036 355.755 350.973 381.987C307.266 408.008 259.676 416.764 209.411 414.049C171.014 411.974 135.17 401.134 102.624 381.083C40.9692 343.099 3.72993 288.955 0.235174 215.303C-2.0993 166.105 12.978 121.483 44.0457 83.0182C85.6515 31.5062 140.467 4.98463 206.059 0.562873C259.631 -3.04855 308.91 10.7459 352.995 41.1498C401.181 74.3814 432.822 119.502 444.871 177.237C451.266 207.878 449.99 238.523 440.954 269.073ZM139.296 365.74L139.542 365.856C139.542 365.856 139.223 365.878 139.543 365.199C132.892 354.478 126.279 343.732 119.509 333.087C119.021 332.319 117.217 331.731 116.301 332C110.773 333.62 105.325 335.516 99.4149 337.462C111.841 349.119 125.098 358.236 139.296 365.74ZM161.476 133.085C156.706 141.085 151.416 148.828 147.332 157.164C144.049 163.863 140.258 167.603 132.531 164.971C132.314 164.897 131.962 165.22 130.85 165.751C130.012 176.966 129.141 188.622 128.227 200.858C153.79 200.013 178.307 199.203 203.363 198.375C202.852 171.887 202.351 145.875 201.828 118.736C192.949 118.736 184.805 119.144 176.728 118.583C171.879 118.247 168.956 119.42 166.999 123.926C165.687 126.946 163.584 129.622 161.476 133.085ZM283.787 141.56C282.858 140.681 281.928 139.803 281.747 139.631C272.624 145.923 264.036 152.168 255.107 157.878C250.157 161.044 249.646 160.543 247.384 154.894C246.146 151.805 244.909 148.716 243.687 145.621C239.63 135.35 239.654 135.372 247.823 127.624C250.847 124.755 253.747 121.755 256.704 118.816C256.397 118.258 256.091 117.701 255.784 117.144C247.27 117.527 238.755 117.909 230.167 118.295C230.167 145.207 230.167 171.451 230.167 197.817C233.777 197.817 237.065 197.65 240.327 197.868C243.108 198.053 244.325 196.953 245.404 194.393C247.07 190.444 249.108 186.555 251.583 183.061C259.105 172.444 270.101 167.924 282.509 165.721C286.661 164.984 289.753 165.338 293.54 167.639C298.032 170.368 303.951 173.566 308.572 172.744C322.935 170.186 336.984 165.857 351.127 162.107C352.577 161.723 353.836 160.616 356.546 159.064C345.23 151.655 335.009 144.963 324.602 138.149C321.268 145.326 318.467 151.52 315.519 157.644C313.646 161.533 310.751 162.784 307.074 159.944C299.442 154.051 291.908 148.034 283.787 141.56ZM373.139 318.378C374.951 319.161 376.763 319.945 378.792 320.822C403.671 292.207 416.948 259.236 418.549 221.645C417.605 221.249 417.315 221.033 417.015 221.019C416.355 220.988 415.658 220.937 415.033 221.107C407.521 223.148 401.505 221.228 396.739 214.871C394.767 212.241 392.076 210.125 389.598 207.903C381.994 201.086 374.334 194.331 366.696 187.552C366.992 190.762 368.101 193.291 369.322 195.765C376.763 210.831 384.132 225.933 391.766 240.901C393.336 243.979 393.081 246.238 391.345 249.04C379.693 267.853 368.167 286.745 356.613 305.62C355.619 307.245 354.725 308.931 353.639 310.845C360.347 313.426 366.39 315.751 373.139 318.378ZM291.59 316.68C271.492 314.719 251.394 312.757 230.384 310.706C231.675 336.593 232.887 360.896 234.108 385.367C258.068 379.658 292.117 341.853 295.682 317.575C294.598 317.317 293.492 317.053 291.59 316.68ZM49.6087 276.964C56.9988 292.237 66.854 305.797 78.4114 318.146C79.3915 319.193 81.3559 320.513 82.3386 320.176C90.7565 317.29 99.0535 314.051 107.387 310.918C107.806 310.288 108.224 309.658 108.643 309.027C105.19 306.194 101.707 303.396 98.2894 300.521C89.6237 293.23 81.0607 285.814 72.2914 278.651C69.8613 276.666 69.2422 274.868 70.1986 271.862C73.0244 262.981 75.5385 254.002 78.1956 245.067C79.4102 240.983 80.6747 236.914 81.546 234.054C72.2948 225.205 61.9853 223.753 50.7394 225.367C44.8848 226.208 38.8875 226.055 32.4964 226.373C35.282 244.434 41.0598 260.767 49.6087 276.964ZM268.871 294.566C276.267 295.272 283.664 295.978 289.955 296.578C289.638 287.448 288.946 278.706 289.206 269.993C289.325 266.003 288.301 263.93 284.816 262.332C270.907 255.957 257.116 249.324 243.181 243.009C240.133 241.628 238.869 239.998 239.194 236.606C239.789 230.387 240.002 224.131 240.376 217.886C236.362 217.886 232.953 217.886 229.783 217.886C229.783 243.115 229.783 267.957 229.783 292.783C243.028 293.392 255.475 293.964 268.871 294.566ZM181.417 374.193C190.441 383.234 201.677 386.063 213.914 386.347C211.747 361.305 209.626 336.797 207.44 311.542C199.929 312.459 192.716 313.438 185.478 314.173C182.621 314.463 181.648 315.821 181.18 318.529C180.104 324.756 178.357 330.875 177.444 337.121C176.812 341.444 175.35 344.088 170.628 344.563C167.763 344.851 164.981 345.96 160.561 347.12C167.829 356.604 174.374 365.145 181.417 374.193ZM228.971 92.6881C229.127 95.2918 229.282 97.8955 229.443 100.587C234.049 100.587 238.183 100.668 242.314 100.565C246.942 100.451 252.892 101.832 255.821 99.4954C258.776 97.1387 259.475 91.0819 259.846 86.5385C260.65 76.7156 264.592 70.5261 275.177 70.1461C275.779 70.1245 276.364 69.6123 277.392 69.1203C264.793 49.2979 250.486 31.8503 226.452 24.1859C227.297 47.2195 228.114 69.4839 228.971 92.6881ZM139.796 229.758C156.015 236.688 172.275 243.525 188.437 250.586C197.159 254.397 195.969 252.304 193.926 261.668C191.493 272.817 188.855 283.921 186.13 295.812C193.664 294.994 200.35 294.268 207.191 293.526C205.824 268.607 204.481 244.108 203.198 220.714C178.725 220.714 154.593 220.699 130.462 220.769C129.484 220.772 128.509 221.581 127.533 222.014C128.235 222.997 128.723 224.363 129.677 224.893C132.724 226.587 135.944 227.97 139.796 229.758ZM174.307 52.9138C169.182 59.4997 164.056 66.0856 158.687 72.9846C169.329 77.0839 178.729 80.7045 188.469 84.4565C186.231 89.9246 184.212 94.8571 181.978 100.314C188.923 100.314 194.974 100.314 200.833 100.314C200.833 76.9576 200.833 53.9774 200.833 30.9971C200.444 30.7431 200.056 30.4891 199.668 30.2351C191.371 37.6176 183.073 45 174.307 52.9138ZM299.228 366.811C296.982 369.991 294.735 373.171 291.692 377.479C318.696 369.444 340.493 355.322 361.567 337.871C354.703 334.955 348.693 332.556 342.827 329.849C339.804 328.454 338.044 328.931 335.641 331.465C330.066 337.343 324.74 344.558 317.732 347.676C310.313 350.977 306.221 355.885 302.469 362.109C301.611 363.532 300.565 364.841 299.228 366.811ZM42.6456 154.085C42.2982 152.693 41.9508 151.301 41.6034 149.908C35.1771 167.677 31.3369 185.683 31.3765 204.924C41.684 204.192 51.3798 203.503 61.949 202.751C58.1531 193.352 54.6592 184.749 51.2047 176.13C48.3676 169.051 45.5772 161.954 42.6456 154.085ZM95.9826 201.727C99.2418 201.727 102.501 201.727 105.669 201.727C106.302 187.788 106.89 174.813 107.501 161.356C102.259 163.16 97.4963 164.616 92.872 166.426C79.068 171.828 76.7076 176.902 81.027 191.338C84.1368 201.732 84.1368 201.732 95.9826 201.727ZM315.686 57.2409C318.196 56.0976 320.707 54.9542 323.75 53.5686C309.085 42.7114 293.421 36.005 276.774 30.9173C285.516 41.8423 294.001 52.4472 302.664 63.2751C306.564 61.4637 310.781 59.5048 315.686 57.2409ZM123.736 62.7882C127.99 64.5426 132.245 66.2971 136.535 68.0659C143.582 57.2569 150.474 46.6841 157.367 36.1112C142.762 41.9713 129.204 49.2536 116.295 59.8009C119.172 60.9823 121.089 61.7698 123.736 62.7882ZM401.735 193.419C406.956 193.744 412.178 194.069 418.306 194.45C416.598 188.042 415.047 182.219 413.598 176.78C408.282 182.185 403.348 187.201 398.367 192.265C398.196 192.056 398.344 192.407 398.596 192.513C399.353 192.831 400.15 193.054 401.735 193.419Z" fill="black"/>
</svg>
