<svg width="1024" height="1024" viewBox="0 0 1024 1024" fill="none" xmlns="http://www.w3.org/2000/svg">
<g clip-path="url(#clip0_56_1721)">
<rect x="629" y="365" width="85" height="92" fill="white"/>
<rect x="363" y="323" width="203" height="189" fill="white"/>
<path d="M631.392 152.091L647 161.5L615 256L569 315L527 341L504 319L538 201L532.5 140.5L577.216 136.039L631.392 152.091Z" fill="white"/>
<path d="M419.731 348.745L441.803 346.739L473.907 358.778L489.96 376.837L501.999 412.954L522.064 429.007L528.084 424.993L530.09 402.922L548.149 374.83H630.417L650.483 380.85L658.509 420.98L676.568 445.059L688.607 449.072L702.652 443.052L714.692 429.007L726.731 396.902L734.757 392.889L794.953 459.105L742.783 481.176L736.764 603.575L682.587 605.582L588.28 597.556L578.247 603.575L570.221 627.654L562.195 685.843L588.28 713.935L616.371 772.124L644.463 864.425L662.522 964.752H646.469L578.247 806.235V798.209L594.3 794.196L596.306 788.176L560.188 744.033L546.143 736.007H528.084L495.979 786.17L497.986 794.196H512.032L536.11 808.242L562.195 1012.91L572.228 1041H540.123L544.136 1028.96L325.999 670L361.541 619.627L383.613 585.516L399.666 579L431.77 595.549L499.992 565.451L544.136 535.353L504.005 495.222L489.96 471.144H447.822L419.731 459.105L399.666 441.046L387.626 418.974L383.613 392.889L395.652 364.797L419.731 348.745Z" fill="white"/>
<path d="M777.868 268.471L779.875 322.647H753.79L739.744 342.712L749.777 356.758L777.868 358.765L773.855 404.915L765.829 414.948L751.783 398.895H735.731L723.692 428.993L705.633 449.059H687.574L677.542 439.026L661.489 384.85L645.437 376.824H557.15L537.084 404.915L535.078 435.013L513.006 416.954L502.973 382.843L480.901 358.765L452.81 348.732L412.679 358.765L390.607 394.882L404.653 443.039L444.783 473.137L498.96 477.15L513.006 503.235L553.136 537.346L452.81 593.529L410.672 601.556L398.633 587.51H346.463L296.3 567.444L274.228 575.471L230.084 549.386L208.012 523.301L183.934 525.307L169.888 499.222L161.862 459.092H145.81L139.79 475.144L135.777 467.118L137.783 402.909L119.725 396.889L161.862 332.68L195.973 260.444L260.182 182.19L346.463 138.046L416.692 124L502.973 126.007L561.163 138.046L555.143 208.275L517.019 318.634L527.051 324.654L585.241 276.497L609.319 240.379L637.411 156.105L727.705 204.261L757.803 234.359L777.868 268.471Z" fill="black"/>
<path d="M553.137 1034.97L547.117 1045H-96.981L-103.001 1036.97L-44.811 848.359L-20.7326 798.196L264.196 709.909L326.398 663.758L553.137 1034.97Z" fill="black"/>
<path d="M532.098 732L554.17 738.02L598.313 790.19L578.248 794.203L576.241 806.242L632.424 938.673L654.496 968.771L664.529 962.752L646.47 860.418L596.307 717.954L829.065 800.222L891.268 1030.97L885.248 1039H574.235L558.183 968.771L538.117 804.235L512.032 790.19H495.98L532.098 732Z" fill="black"/>
<path d="M631.392 152.092L629.385 186.203L603.3 246.399L557.15 302.582L527.052 322.647L519.026 318.634L559.156 200.248L563.169 140.052L577.215 136.039L631.392 152.092Z" fill="white"/>
<path d="M469 485L495 529H441L469 485Z" fill="white"/>
</g>
<defs>
<clipPath id="clip0_56_1721">
<rect width="1024" height="1024" fill="white"/>
</clipPath>
</defs>
</svg>
