<svg width="1024" height="1024" viewBox="0 0 1024 1024" fill="none" xmlns="http://www.w3.org/2000/svg">
<g clip-path="url(#clip0_23_186)">
<path d="M689.5 256.5L731 353.5L737 388.5L803 471C791.333 476.333 764.3 487.5 749.5 489.5V624.5C710.667 625.5 626.3 625.1 599.5 615.5L603 685L629.5 734L725.5 1029.5V1045H488L300.5 644L315 636L328.5 604.5L343 611.5L360 563L371.5 486.75L360 343L432.5 308.5L533 256.5H689.5Z" fill="white"/>
<path d="M519.634 1022.11L391.466 764.416L341.833 675.165L302.88 616.083L292.827 620.482L236.283 662.594L230.628 671.394L123.822 710.991L-10 767.559V1024L519.634 1022.11Z" fill="black"/>
<path d="M714.974 138.398L719 126L684 154.5L657.801 164.797H650.89L661.571 142.17L660.314 121.428L657.801 109L647 130.227L634.5 140.5L602 152.226H594.974L604.398 132.742L607.5 103.5L585 126L567.5 135.5L541.5 145L527 149L522.094 150.969L528.5 139L531.518 130.227L536.5 111L516 127L468 147.826L442.932 154.112L452.356 130.856L456.5 121L420.5 137.141L408.5 143.5L395.5 151L385.131 168.568L379.476 162.283L377.591 137.141L379.476 121L364 145.5L353 173.5L347 200L333 195L304.5 180L311.5 198L320.5 216.5L323.5 225.5L312.5 226.393L295.916 229.5L252 251L266.387 252.163L295.916 260.334L281.466 273L275.5 281.5L263.5 296.5L252 332L281.466 313.759L279.5 332V363L285.5 391.5L310.995 439.465L337.382 511.118L355.602 541.916L371.937 547.573L410.89 550.715L427.225 492.89L451.099 492.262L466.806 485.977L465.55 470.892L451.099 475.291H432.251L418.429 469.006L401.466 452.664L392.042 435.065L387.644 418.095L389.529 386.04L399.581 367.184L419.686 353.985L445.445 352.099L470.576 364.041L493.194 389.811L508.272 421.238L547.853 417.467L534.031 387.926L534.66 364.67L619.476 355.87L630.785 357.756L635.183 385.411L643.351 405.524L654.66 418.724L665.968 425.009L686.701 426.895L704.921 418.724L719.372 402.382L733.194 368.441L736.335 366.555L747.644 376.612L770.262 405.524L774.031 404.267L785.969 360.899V343.928L780.314 341.414L734.45 336.386L687.958 326.958H647.12L547.225 340.786L528.377 338.9L543.455 309.988L535.916 271.019L536.544 260.334L618.22 245.249L687.958 237.706L706.178 225.136L731.309 198.109L737.5 189.5L711.5 197.48H689.5H677.906L678.534 193.709L692.984 181.139L703.037 166.682L714.974 138.398Z" fill="black"/>
<path d="M629.477 694.021V700.306L657.121 775.73L688.534 880.695L724.346 1024H970L922.88 863.724L901.518 806.528L853.142 787.672L831.152 782.015L826.754 783.272L780.89 762.531L726.859 745.56L697.33 723.562L629.477 694.021Z" fill="black"/>
<path d="M557.277 710.362L519.581 770.701L530.89 766.93L547.853 780.129L579.895 1024H665.969L650.262 982.517L643.979 949.833L628.272 895.779L612.565 855.553L600.628 812.813L586.178 783.272L589.319 778.872L602.513 776.358L594.974 742.417L581.152 721.047L557.277 710.362Z" fill="black"/>
</g>
<defs>
<clipPath id="clip0_23_186">
<rect width="1024" height="1024" fill="white"/>
</clipPath>
</defs>
</svg>
