<svg width="1024" height="1024" viewBox="0 0 1024 1024" fill="none" xmlns="http://www.w3.org/2000/svg">
<g clip-path="url(#clip0_50_1702)">
<rect x="629" y="365" width="85" height="92" fill="white"/>
<rect x="363" y="323" width="203" height="189" fill="white"/>
<path d="M419.732 348.745L441.804 346.739L473.908 358.778L489.961 376.837L502 412.954L522.065 429.007L528.085 424.993L530.091 402.922L548.15 374.83H630.418L650.484 380.85L658.51 420.98L676.568 445.059L688.608 449.072L702.653 443.052L714.693 429.007L726.732 396.902L734.758 392.889L794.954 459.105L742.784 481.176L736.765 603.575L682.588 605.582L588.281 597.556L578.248 603.575L570.222 627.654L562.196 685.843L588.281 713.935L616.372 772.124L644.464 864.425L662.523 964.752H646.47L578.248 806.235V798.209L594.301 794.196L596.307 788.176L560.189 744.033L546.144 736.007H528.085L495.98 786.17L497.987 794.196H512.033L536.111 808.242L562.196 1012.91L572.229 1041H540.124L544.137 1028.96L326 670L361.542 619.627L383.614 585.516L399.667 579L431.771 595.549L499.993 565.451L544.137 535.353L504.006 495.222L489.961 471.144H447.823L419.732 459.105L399.667 441.046L387.627 418.974L383.614 392.889L395.653 364.797L419.732 348.745Z" fill="white"/>
<path d="M777.869 268.471L779.876 322.647H753.791L739.745 342.712L749.778 356.758L777.869 358.765L773.856 404.915L765.83 414.948L751.784 398.895H735.732L723.693 428.993L705.634 449.059H687.575L677.543 439.026L661.49 384.85L645.438 376.824H557.15L537.085 404.915L535.079 435.013L513.007 416.954L502.974 382.843L480.902 358.765L452.811 348.732L412.68 358.765L390.608 394.882L404.654 443.039L444.784 473.137L498.961 477.15L513.007 503.235L553.137 537.346L452.811 593.529L410.673 601.556L398.634 587.51H346.464L296.301 567.444L274.229 575.471L230.085 549.386L208.013 523.301L183.935 525.307L169.889 499.222L161.863 459.092H145.811L139.791 475.144L135.778 467.118L137.784 402.908L119.726 396.889L161.863 332.68L195.974 260.444L260.183 182.19L346.464 138.046L416.693 124L502.974 126.007L561.164 138.046L637.412 156.105L727.706 204.261L757.804 234.359L777.869 268.471Z" fill="black"/>
<path d="M553.137 1034.97L547.118 1045H-96.9805L-103 1036.97L-44.8105 848.359L-20.7321 798.196L264.196 709.909L326.399 663.758L553.137 1034.97Z" fill="black"/>
<path d="M532.098 732L554.17 738.02L598.314 790.19L578.248 794.203L576.242 806.242L632.425 938.673L654.497 968.771L664.53 962.752L646.471 860.418L596.307 717.954L829.065 800.222L891.268 1030.97L885.248 1039H574.235L558.183 968.771L538.118 804.235L512.033 790.19H495.981L532.098 732Z" fill="black"/>
</g>
<defs>
<clipPath id="clip0_50_1702">
<rect width="1024" height="1024" fill="white"/>
</clipPath>
</defs>
</svg>
