<svg width="256" height="256" viewBox="0 0 256 256" fill="none" xmlns="http://www.w3.org/2000/svg">
<path d="M172.942 150.76C174.874 155.237 176.659 159.357 178.429 163.484C180.287 167.819 183.237 171.127 187.746 172.683C192.621 174.365 193.273 178.079 192.566 182.328C191.811 186.868 188.092 186.572 184.745 186.58C171.917 186.611 159.09 186.599 146.262 186.606C142.412 186.608 138.665 186.258 137.806 181.517C137.013 177.141 139.272 174.739 143.344 173.409C146.926 172.239 147.915 169.416 147.297 165.823C145.707 156.587 144.03 155.162 134.594 155.199C125.932 155.234 117.266 155.384 108.607 155.221C104.305 155.14 101.263 155.976 100.146 160.83C98.8009 166.678 99.6318 170.388 104.093 172.999C107.269 174.857 110 176.711 109.646 181.002C109.418 183.766 108.269 185.47 105.397 185.479C92.7367 185.519 80.0763 185.513 67.416 185.481C65.1634 185.475 63.4524 184.408 63.2217 182.046C62.8987 178.74 62.4477 175.26 65.7669 172.97C66.71 172.319 67.8063 171.781 68.9111 171.493C75.53 169.769 79.1813 165.041 81.6254 159.087C90.6641 137.07 99.7001 115.052 108.697 93.0176C111.394 86.4138 110.817 84.9051 104.216 81.8688C101.258 80.5083 99.8167 78.5355 100.048 75.2636C100.304 71.6555 102.58 69.4316 105.736 69.3274C116.545 68.9703 127.376 68.8915 138.188 69.1597C141.834 69.2502 142.992 72.8442 144.143 75.8373C153.276 99.605 162.408 123.373 171.54 147.142C171.958 148.229 172.372 149.319 172.942 150.76ZM119.936 138.31C123.259 138.286 126.583 138.285 129.906 138.233C136.517 138.13 136.891 137.762 134.919 131.292C133.082 125.262 130.979 119.307 128.803 113.389C127.344 109.42 126.365 105.208 123.813 101.608C122.138 102.784 121.806 104.465 121.196 105.967C118.196 113.348 115.345 120.792 112.205 128.113C108.072 137.752 108.393 138.34 119.936 138.31Z" fill="black"/>
</svg>
