<svg width="256" height="256" viewBox="0 0 256 256" fill="none" xmlns="http://www.w3.org/2000/svg">
<path d="M162.677 110.38C162.236 125.019 163.685 139.206 161.823 153.303C158.911 175.351 145.708 183.628 127.504 186.423C114.583 188.406 101.49 187.59 90.238 179.186C79.6173 171.253 75.7962 155.417 81.944 144.78C85.555 138.533 93.3979 135.006 100.815 136.295C107.937 137.533 112.857 142.141 114.238 149.271C115.326 154.886 112.867 159.229 108.81 162.942C105.092 166.344 105.616 168.546 110.348 170.173C120.81 173.771 130.229 168.061 132.252 157.079C132.86 153.777 133.154 150.502 133.154 147.165C133.154 129.506 133.193 111.846 133.185 94.1863C133.182 86.3598 131.833 84.6425 124.374 82.6496C119.902 81.4547 117.725 78.4803 118.27 74.3325C118.858 69.8611 121.713 68.9591 125.754 69.0014C140.413 69.1548 155.075 69.0963 169.736 69.0483C173.336 69.0365 176.328 69.3716 177 73.9234C177.654 78.3464 175.915 80.8768 171.875 82.3151C163.865 85.1668 162.873 86.5257 162.713 94.8863C162.617 99.8825 162.683 104.882 162.677 110.38Z" fill="black"/>
</svg>
