<svg width="256" height="256" viewBox="0 0 256 256" fill="none" xmlns="http://www.w3.org/2000/svg">
<path d="M109.485 178.541C93.3005 175.715 79.9734 168.914 71.0246 155.197C56.1731 132.433 56.7613 92.2646 79.9812 72.0281C89.7644 63.5019 101.413 59.3535 114.14 58.3657C127.367 57.3392 140.391 58.2469 152.715 64.0226C171.531 72.841 180.673 88.2785 183.387 108.209C186.041 127.691 181.69 145.213 168.53 160.154C166.551 162.401 166.72 164.07 168.664 166.13C174.333 172.136 180.653 176.71 189.433 176.411C190.416 176.377 191.431 176.531 192.389 176.767C192.988 176.915 193.508 177.382 194.482 177.95C191.233 187.056 185.461 193.667 176.213 196.263C166.532 198.981 157.726 196.192 151.594 188.311C145.597 180.602 139.731 175.459 128.834 178.43C122.955 180.032 116.262 178.647 109.485 178.541ZM103.778 81.6631C95.7804 90.3704 93.3365 101.147 92.6861 112.441C91.9512 125.203 92.8395 137.835 100.044 148.931C105.875 157.912 115.904 164.442 128.631 159.835C123.559 152.094 117.127 146.768 106.421 146.225C110.976 140.14 115.351 136.336 120.927 133.916C132.418 128.929 139.872 137.067 147.96 143.065C151.271 137.163 151.823 131.317 152.315 125.577C153.375 113.198 152.894 100.938 146.993 89.5745C138.218 72.6756 117.015 68.5261 103.778 81.6631Z" fill="black"/>
</svg>
