<svg width="256" height="256" viewBox="0 0 256 256" fill="none" xmlns="http://www.w3.org/2000/svg">
<path d="M96.2779 157.933C86.7116 147.262 76.3294 137.788 68.2254 126.289C63.1001 119.017 58.8075 111.452 57.49 102.405C55.1903 86.6131 61.0151 73.7288 74.3378 65.9499C87.5211 58.2524 103.284 59.6514 115.441 69.4269C120.183 73.2404 123.478 78.206 126.847 83.4643C129.448 81.8989 130.26 79.4289 131.708 77.5112C140.354 66.0618 151.695 59.667 166.154 61.2342C179.872 62.721 190.134 70.1644 195.592 83.025C200.335 94.2015 198.369 105.274 193.101 115.818C185.904 130.22 174.269 141.118 163.464 152.638C151.608 165.278 139.987 178.099 130.292 192.53C129.556 193.625 128.888 194.82 126.828 195.38C117.807 182.312 107.869 169.661 96.2779 157.933Z" fill="black"/>
</svg>
