<svg width="256" height="256" viewBox="0 0 256 256" fill="none" xmlns="http://www.w3.org/2000/svg">
<path d="M187.544 92.3507C195.94 110.105 196.052 128.36 193.291 146.917C192.018 155.47 188.916 163.365 184.013 170.4C168.286 192.961 138.152 192.031 123.088 168.775C115.066 156.39 112.49 142.626 112.623 128.277C112.734 116.281 113.936 104.406 119.07 93.2088C126.341 77.3529 139.541 68.4405 155.861 69.0273C168.301 69.4745 176.948 76.2748 183.695 86.0704C185.016 87.9883 186.152 90.0332 187.544 92.3507ZM138.762 117.06C138.763 124.716 138.511 132.382 138.832 140.025C139.2 148.808 139.619 157.631 143.558 165.823C145.641 170.154 148.943 172.772 153.622 172.812C158.264 172.852 161.843 170.44 163.958 166.165C165.518 163.011 166.371 159.639 167.075 156.207C169.809 142.883 169.465 129.383 168.851 115.951C168.483 107.886 168.317 99.6295 164.946 91.9547C162.777 87.0163 159.3 83.2176 153.92 83.0191C148.398 82.8153 144.993 86.6072 142.871 91.6431C139.561 99.5024 139.65 107.875 138.762 117.06Z" fill="black"/>
<path d="M103.081 170.487C105.1 172.572 107.401 172.826 109.738 173.131C113.634 173.639 115.036 176.118 114.72 179.838C114.417 183.407 112.193 184.638 108.949 184.638C95.466 184.64 81.9835 184.62 68.501 184.64C65.4095 184.645 63.3032 183.538 63.0774 180.17C62.8513 176.797 63.2676 174.001 67.3924 172.94C76.2624 170.659 76.1318 170.369 76.4893 161.126C77.2548 141.336 76.6357 121.554 76.4429 101.769C76.377 95.0142 76.0963 94.7929 69.728 95.7761C66.2738 96.3095 62.5036 97.6293 61.2607 92.5852C60.2274 88.3915 62.2642 85.5605 67.399 84.0208C74.5001 81.8914 81.0626 78.8273 86.5381 73.6968C90.3011 70.171 94.9099 70.7951 99.3032 71.5974C102.048 72.0985 101.652 74.8793 101.656 77.0026C101.681 90.9846 101.669 104.967 101.66 118.949C101.65 133.597 101.62 148.245 101.627 162.892C101.628 165.374 101.409 167.917 103.081 170.487Z" fill="black"/>
</svg>
