<svg width="256" height="256" viewBox="0 0 256 256" fill="none" xmlns="http://www.w3.org/2000/svg">
<path d="M69.2527 79.7204C66.3315 72.5636 68.5374 69.0575 75.6798 69.031C88.6716 68.9829 101.664 69.0752 114.656 69.0088C118.415 68.9896 121.414 69.8711 121.761 74.1753C122.075 78.0728 120.791 81.0546 116.355 81.748C111.351 82.5302 109.263 86.1374 109.131 90.5976C108.853 100.048 109.046 109.511 109.046 120.49C115.091 113.945 120.203 108.402 125.325 102.869C129.509 98.349 133.726 93.8602 137.89 89.3218C140.566 86.4044 141.365 83.7271 137.136 81.2791C133.859 79.3827 132.94 76.3211 133.908 72.6662C134.955 68.7159 138.101 69.0102 141.13 69.0147C150.624 69.0286 160.12 69.127 169.612 69.0015C173.75 68.9468 176.588 70.3438 176.791 74.7158C176.975 78.6888 175.182 81.1593 170.801 81.8145C165.724 82.5738 161.48 85.3171 157.999 89.0678C151.655 95.9028 145.476 102.892 139.063 109.661C136.777 112.075 136.879 114.039 138.643 116.669C150.143 133.816 161.939 150.754 174.039 167.482C176.402 170.748 179.583 172.771 183.306 173.909C187.577 175.214 189.177 178.121 188.59 182.257C187.992 186.475 184.712 187.329 181.16 187.332C168.335 187.344 155.51 187.311 142.686 187.194C140.216 187.171 137.325 187.128 136.542 184.058C135.734 180.889 135.772 177.473 138.976 175.558C142.728 173.316 143.025 170.353 141.149 167.087C134.438 155.405 126.227 144.75 118.161 133.107C113.23 137.651 108.824 141.609 108.845 148.299C108.865 154.279 108.404 160.274 109.41 166.237C110.146 170.603 112.29 173.694 116.714 174.728C120.995 175.729 122.316 178.557 121.846 182.528C121.352 186.695 118.207 187.305 114.862 187.312C101.704 187.342 88.5449 187.338 75.3868 187.267C72.1237 187.249 68.8587 186.894 68.2893 182.649C67.7397 178.552 68.7795 175.412 73.3233 174.308C78.7787 172.982 80.0993 168.503 80.1345 163.912C80.3198 139.762 80.33 115.609 80.1819 91.4586C80.1419 84.9337 78.424 83.2894 72.1194 81.4266C71.1925 81.1527 70.378 80.498 69.2527 79.7204Z" fill="black"/>
</svg>
