<svg width="256" height="256" viewBox="0 0 256 256" fill="none" xmlns="http://www.w3.org/2000/svg">
<path d="M116.935 174.661C120.132 168.383 122.494 162.243 122.861 155.056C120.374 155.449 119.879 157.395 118.799 158.633C110.677 167.947 100.524 172.767 88.1928 170.751C76.7058 168.872 68.3609 162.307 64.5838 150.945C60.9134 139.904 63.948 129.977 70.338 120.8C75.9049 112.804 83.274 106.497 90.2766 99.8629C103.341 87.486 116.215 74.9446 126.656 60.1653C127.019 59.6518 127.63 59.3136 128 59.0003C129.854 58.9758 130.481 60.289 131.2 61.3405C142.082 77.2599 155.557 90.8207 169.591 103.906C176.294 110.156 182.516 116.858 187.314 124.784C195.69 138.621 194.02 152.332 182.47 163.222C172.819 172.32 156.403 173.008 144.528 164.863C140.109 161.832 136.602 157.88 133.19 153.35C131.491 164.357 139.47 184.124 152.971 190.17C154.034 190.646 155.107 191.106 156.145 191.634C157.414 192.28 158.28 193.239 158.148 194.781C157.985 196.664 156.569 197.147 155.042 197.476C154.717 197.547 154.385 197.624 154.056 197.624C136.236 197.661 118.416 197.715 100.597 197.684C98.569 197.68 96.373 197.179 96.0736 194.663C95.812 192.463 97.6214 191.48 99.3434 190.769C107.05 187.591 112.722 182.197 116.935 174.661Z" fill="black"/>
</svg>
