<svg width="256" height="256" viewBox="0 0 256 256" fill="none" xmlns="http://www.w3.org/2000/svg">
<path d="M121.299 159.508C122.051 156.397 122.498 153.685 121.541 149.673C117.578 155.808 114.1 161.015 108.96 164.771C97.7648 172.95 85.6904 173.648 73.6208 167.773C61.8889 162.062 55.6576 152.263 56.0145 138.827C56.5729 117.806 79.4316 104.6 99.5521 113.674C101.336 114.478 102.946 115.779 106.129 115.584C89.89 97.1021 88.906 79.703 110.23 65.3468C123.384 56.4908 142.145 59.0714 153.217 69.8765C159.636 76.1401 162.641 83.7255 162.699 92.711C162.759 101.958 157.248 108.441 151.579 115.439C154.524 116.45 156.183 114.71 157.959 113.963C175.983 106.379 195.839 116.074 199.391 134.26C203.465 155.114 184.991 174.173 163.713 171.455C152.172 169.981 144.219 163.656 137.854 154.546C136.878 153.149 136.585 151.052 133.914 150.517C133.471 158.036 136.055 164.632 139.04 171.005C142.578 178.562 147.91 184.685 155.443 188.59C157.295 189.55 159.348 190.361 158.856 192.825C158.294 195.637 155.726 195.462 153.603 195.47C144.607 195.503 135.61 195.421 126.614 195.413C118.95 195.406 111.287 195.471 103.623 195.441C101.47 195.432 98.9765 195.557 98.2269 192.898C97.4424 190.115 99.7744 189.268 101.691 188.203C112.857 181.998 118.302 171.826 121.299 159.508Z" fill="black"/>
</svg>
