<svg width="256" height="256" viewBox="0 0 256 256" fill="none" xmlns="http://www.w3.org/2000/svg">
<path d="M159.346 81.1446C170.435 92.1293 174.361 105.809 175.097 120.382C176.046 139.155 172.71 156.902 159.485 171.517C150.581 181.358 139.735 187.07 126.35 187.699C115.346 188.217 104.746 187.062 95.1144 181.041C88.4084 176.85 85.3059 169.933 87.3993 163.232C89.3719 156.918 95.368 153.457 103.34 154.032C109.549 154.479 113.716 158.126 114.211 164.915C114.594 170.183 117.325 171.344 121.697 171.306C127.292 171.256 132.271 169.372 136.211 165.53C145.247 156.719 146.76 145.421 146.775 132.797C142.041 135.564 138.24 138.208 134.105 140.13C117.961 147.634 94.443 143.291 84.8354 125.416C72.8033 103.029 84.1019 76.2781 109.02 70.1387C127.169 65.6672 144.465 67.6924 159.346 81.1446ZM109.267 95.1007C107.75 101.892 107.844 108.612 110.359 115.168C113.324 122.895 120.091 127.46 127.665 126.954C135.789 126.412 141.298 121.781 143.19 113.228C144.647 106.643 144.378 100.042 141.567 93.7166C138.111 85.9374 132.611 82.0912 125.129 82.3088C116.708 82.5536 112.806 85.5541 109.267 95.1007Z" fill="black"/>
</svg>
